<svg version="1.1" id="Layer_1" xmlns="http://www.w3.org/2000/svg" xmlns:xlink="http://www.w3.org/1999/xlink" x="0px" y="0px"
	 width="100%" viewBox="0 0 2560 2560" enable-background="new 0 0 2560 2560" xml:space="preserve">
<path fill="#000000" opacity="1.000000" stroke="none" 
	d="
M1176.000000,2562.000000 
	C784.000000,2562.000000 393.000000,2562.000000 2.000000,2562.000000 
	C2.000000,1708.666626 2.000000,855.333313 2.000000,2.000000 
	C855.333313,2.000000 1708.666626,2.000000 2562.000000,2.000000 
	C2562.000000,855.333313 2562.000000,1708.666626 2562.000000,2562.000000 
	C2100.333252,2562.000000 1638.666626,2562.000000 1176.000000,2562.000000 
z"/>
<path fill="#EE7E2B" opacity="1.000000" stroke="none" 
	d="
M1725.920410,1131.916504 
	C1715.594116,1164.701538 1705.530518,1196.733154 1695.345581,1228.726196 
	C1692.287842,1238.331055 1692.133301,1238.293457 1682.197998,1238.328735 
	C1675.532471,1238.352417 1668.859985,1238.522949 1662.203613,1238.275513 
	C1657.668091,1238.107178 1655.229858,1239.440918 1655.651733,1244.407349 
	C1655.876587,1247.054199 1655.679077,1249.736450 1655.679077,1252.402710 
	C1655.678467,1418.043335 1655.646118,1583.684082 1655.724609,1749.324707 
	C1655.733398,1767.646118 1654.280396,1764.243530 1640.308960,1764.298340 
	C1608.981079,1764.421143 1577.652222,1764.344971 1546.323853,1764.333130 
	C1533.685181,1764.328369 1533.658081,1764.308472 1533.657593,1751.664551 
	C1533.651489,1585.690552 1533.681152,1419.716675 1533.613770,1253.742676 
	C1533.606567,1235.938110 1536.166016,1238.377563 1518.406494,1238.370239 
	C1361.097778,1238.304932 1203.789185,1238.316528 1046.480469,1238.359131 
	C1032.328979,1238.363037 1033.726562,1236.438477 1033.724121,1251.140137 
	C1033.695557,1416.114258 1033.706055,1581.088379 1033.705933,1746.062500 
	C1033.705933,1748.728760 1033.769653,1751.396973 1033.691406,1754.060913 
	C1033.424194,1763.158691 1032.348633,1764.300659 1023.086792,1764.315308 
	C989.092224,1764.369263 955.097473,1764.364746 921.102844,1764.318604 
	C911.370728,1764.305420 910.498718,1763.328491 910.304749,1753.305542 
	C910.253235,1750.640259 910.294006,1747.973145 910.294006,1745.306885 
	C910.293884,1580.999268 910.314026,1416.691772 910.262756,1252.384155 
	C910.257629,1235.926270 912.298584,1238.611572 895.763550,1238.343872 
	C891.098816,1238.268311 886.402405,1238.003418 881.773438,1238.417480 
	C876.066528,1238.928101 873.408630,1236.403076 871.778076,1231.153442 
	C864.382019,1207.341431 856.702881,1183.617676 849.155518,1159.852539 
	C841.507751,1135.771240 833.897400,1111.678223 826.262878,1087.592773 
	C825.659851,1085.690063 824.878052,1083.836792 824.382019,1081.908447 
	C821.746948,1071.663818 824.198181,1068.373535 834.629028,1068.349365 
	C857.291992,1068.296997 879.955322,1068.367798 902.618225,1068.297119 
	C910.123413,1068.273682 910.266113,1068.146118 910.269714,1060.539795 
	C910.306091,983.551880 910.306213,906.563904 910.270630,829.575989 
	C910.266968,821.784363 910.127686,821.699219 901.746277,821.678833 
	C880.749695,821.627625 859.750671,821.494202 838.757568,821.766968 
	C832.801697,821.844360 829.435486,820.057068 826.149536,814.645752 
	C799.206360,770.275330 771.788879,726.192932 744.520569,682.019897 
	C741.198547,676.638550 737.909424,671.236816 734.599548,665.847900 
	C733.562805,664.159912 732.527771,662.570129 732.315125,660.432129 
	C731.682190,654.065918 733.293945,651.876038 739.700500,651.700684 
	C751.684143,651.372620 763.573669,652.963196 775.500854,653.757446 
	C799.352783,655.345825 823.189148,657.116821 847.059143,658.494019 
	C870.925354,659.870972 894.790588,661.204285 918.660767,662.503845 
	C947.189270,664.057007 975.752808,664.856628 1004.253357,666.590637 
	C1022.202271,667.682678 1040.148315,667.212097 1058.063721,668.316833 
	C1085.968506,670.037537 1113.941284,669.535706 1141.840454,670.664246 
	C1156.801758,671.269531 1171.743774,671.474304 1186.691284,671.604614 
	C1230.335205,671.985229 1273.981323,672.242920 1317.626709,672.284180 
	C1346.607422,672.311646 1375.621948,672.667786 1404.559692,671.431763 
	C1431.161865,670.295532 1457.786499,670.800781 1484.344116,669.463074 
	C1504.614624,668.442078 1524.904663,668.511414 1545.138550,667.468079 
	C1574.670654,665.945435 1604.232788,665.156311 1633.748047,663.504578 
	C1658.286255,662.131348 1682.867310,661.316162 1707.361084,659.477295 
	C1739.119263,657.092957 1770.974365,656.027710 1802.654053,652.494995 
	C1810.567627,651.612488 1818.614014,651.676331 1826.596802,651.726562 
	C1835.545898,651.782898 1837.876343,655.985107 1833.202637,663.864258 
	C1826.581055,675.027527 1819.545898,685.944641 1812.741943,697.000488 
	C1787.981323,737.233582 1763.162231,777.431274 1738.619629,817.796997 
	C1736.097290,821.945740 1732.897827,821.645569 1729.308228,821.649475 
	C1708.311523,821.672607 1687.314819,821.658569 1666.318115,821.664062 
	C1663.985474,821.664673 1661.652954,821.706238 1659.320312,821.733826 
	C1656.845825,821.763123 1655.759766,823.123718 1655.737549,825.491882 
	C1655.715820,827.824646 1655.681396,830.157410 1655.681396,832.490173 
	C1655.678345,907.478394 1655.662964,982.466614 1655.695557,1057.454834 
	C1655.700684,1069.373779 1654.480103,1068.296021 1666.265015,1068.321899 
	C1688.261475,1068.370117 1710.258423,1068.269897 1732.254639,1068.355225 
	C1743.165649,1068.397461 1745.263306,1071.378174 1741.955688,1081.780518 
	C1736.719604,1098.248291 1731.413086,1114.693604 1725.920410,1131.916504 
z"/>
<path fill="#010100" opacity="1.000000" stroke="none" 
	d="
M1533.660400,878.000183 
	C1533.660400,937.972595 1533.660645,996.945007 1533.659424,1055.917358 
	C1533.659424,1058.249512 1533.530273,1060.588501 1533.665894,1062.912354 
	C1533.884644,1066.658936 1532.363892,1068.528931 1528.486450,1068.338745 
	C1526.492676,1068.240845 1524.489380,1068.341553 1522.490356,1068.341431 
	C1466.849731,1068.338623 1411.209229,1068.334351 1355.568604,1068.328857 
	C1353.569580,1068.328735 1351.565918,1068.224976 1349.572510,1068.327148 
	C1345.741455,1068.523438 1344.085083,1066.774658 1344.332275,1062.969116 
	C1344.461426,1060.979004 1344.334961,1058.972656 1344.334961,1056.973633 
	C1344.333862,982.341919 1344.333984,907.710266 1344.334961,833.078552 
	C1344.334961,831.079529 1344.457520,829.073608 1344.331543,827.082947 
	C1344.094360,823.333923 1345.635864,821.469849 1349.509888,821.658813 
	C1351.503784,821.756042 1353.507202,821.654846 1355.506226,821.654846 
	C1411.146851,821.653687 1466.787354,821.653809 1522.427979,821.654480 
	C1524.093872,821.654480 1525.772461,821.797668 1527.423096,821.641235 
	C1532.204712,821.188049 1533.794678,823.284302 1533.733643,828.023987 
	C1533.523926,844.346985 1533.657593,860.674377 1533.660400,878.000183 
z"/>
<path fill="#000000" opacity="1.000000" stroke="none" 
	d="
M1189.995483,1068.324707 
	C1141.346802,1068.324707 1093.696899,1068.324951 1046.046875,1068.323608 
	C1043.714355,1068.323608 1041.374878,1068.192505 1039.051025,1068.331299 
	C1035.335449,1068.553345 1033.410278,1067.163574 1033.702393,1063.206909 
	C1033.849121,1061.218994 1033.707397,1059.210449 1033.707397,1057.211182 
	C1033.706177,982.570618 1033.706299,907.930054 1033.706421,833.289490 
	C1033.706421,831.956604 1033.681763,830.623169 1033.712524,829.291016 
	C1033.884277,821.834045 1033.888794,821.691345 1041.536621,821.685852 
	C1099.183105,821.644165 1156.829712,821.644226 1214.476196,821.686035 
	C1222.139526,821.691589 1222.294922,821.834656 1222.298706,829.280273 
	C1222.337891,906.253357 1222.336548,983.226379 1222.302734,1060.199463 
	C1222.299316,1068.183228 1222.168701,1068.234131 1213.985962,1068.308350 
	C1206.322632,1068.377930 1198.658081,1068.324097 1189.995483,1068.324707 
z"/>
</svg>