<svg version="1.1" xmlns="http://www.w3.org/2000/svg" viewBox="0 0 1205 423" width="1205" height="423">
  <!-- svg-source:excalidraw -->
  
  <defs>
    <style class="style-fonts">
      @font-face {
        font-family: "Virgil";
        src: url("https://excalidraw.com/Virgil.woff2");
      }
      @font-face {
        font-family: "Cascadia";
        src: url("https://excalidraw.com/Cascadia.woff2");
      }
    </style>
  </defs>
  <g transform="translate(764 402) rotate(0 -161.5 -190.5)" stroke="none"><path fill="#000000" d="M 0.39,1.97 Q 0.39,1.97 -1.03,2.30 -2.46,2.62 -3.50,2.90 -4.55,3.17 -4.82,3.17 -5.10,3.18 -5.36,3.12 -5.63,3.06 -5.88,2.93 -6.12,2.81 -6.33,2.63 -6.54,2.45 -6.69,2.23 -6.85,2.00 -6.95,1.75 -7.06,1.49 -7.09,1.22 -7.13,0.95 -7.10,0.68 -7.07,0.41 -6.98,0.15 -6.88,-0.10 -6.73,-0.33 -6.58,-0.55 -6.38,-0.74 -6.17,-0.92 -5.93,-1.06 -5.69,-1.19 -5.43,-1.26 -5.16,-1.32 -3.01,-2.73 -0.86,-4.14 3.92,-5.75 8.70,-7.36 13.04,-8.29 17.38,-9.21 20.74,-9.58 24.10,-9.95 25.13,-9.66 26.16,-9.37 26.38,-9.37 26.60,-9.37 26.81,-9.32 27.02,-9.27 27.21,-9.17 27.40,-9.07 27.56,-8.92 27.72,-8.78 27.85,-8.61 27.97,-8.43 28.05,-8.23 28.13,-8.03 28.15,-7.81 28.18,-7.60 28.15,-7.38 28.13,-7.17 28.05,-6.97 27.98,-6.76 27.86,-6.59 27.73,-6.41 27.57,-6.26 27.41,-6.12 27.22,-6.02 27.03,-5.92 26.82,-5.86 26.61,-5.81 18.79,-2.16 10.97,1.47 -0.75,4.07 -12.49,6.66 -23.82,8.32 -35.14,9.98 -40.96,9.52 -46.78,9.07 -48.59,8.33 -50.41,7.59 -50.58,7.55 -50.76,7.52 -50.92,7.44 -51.08,7.37 -51.22,7.25 -51.36,7.14 -51.46,7.00 -51.57,6.86 -51.64,6.70 -51.71,6.53 -51.74,6.36 -51.77,6.18 -51.75,6.01 -51.74,5.83 -51.69,5.66 -51.63,5.49 -51.54,5.34 -51.44,5.19 -51.31,5.07 -51.19,4.94 -51.03,4.86 -50.88,4.77 -50.71,4.72 -50.54,4.67 -50.36,4.66 -50.18,4.65 -48.54,3.34 -46.90,2.02 -43.06,-0.06 -39.22,-2.16 -32.61,-4.23 -25.99,-6.30 -23.81,-7.15 -21.62,-8.01 -21.46,-8.04 -21.30,-8.07 -21.14,-8.06 -20.98,-8.05 -20.82,-8.00 -20.67,-7.95 -20.53,-7.87 -20.39,-7.78 -20.28,-7.67 -20.16,-7.55 -20.08,-7.41 -19.99,-7.28 -19.94,-7.12 -19.90,-6.97 -19.89,-6.80 -19.88,-6.64 -19.91,-6.48 -19.93,-6.32 -20.00,-6.17 -20.07,-6.02 -20.17,-5.90 -20.27,-5.77 -20.40,-5.67 -20.52,-5.57 -20.67,-5.50 -20.82,-5.44 -22.02,-4.47 -23.22,-3.50 -25.05,-2.88 -26.89,-2.25 -27.32,-1.93 -27.75,-1.61 -27.97,-1.57 -28.19,-1.52 -28.41,-1.53 -28.63,-1.55 -28.84,-1.61 -29.05,-1.67 -29.24,-1.78 -29.43,-1.90 -29.59,-2.05 -29.75,-2.20 -29.87,-2.39 -29.98,-2.58 -30.05,-2.79 -30.12,-3.00 -30.14,-3.22 -30.15,-3.44 -30.12,-3.66 -30.08,-3.88 -29.99,-4.08 -29.90,-4.28 -29.77,-4.46 -29.63,-4.63 -29.46,-4.77 -29.29,-4.91 -29.09,-5.00 -28.89,-5.10 -22.38,-6.86 -15.88,-8.63 -9.63,-9.73 -3.37,-10.84 -0.28,-11.84 2.81,-12.84 3.56,-13.39 4.31,-13.95 4.51,-13.99 4.71,-14.03 4.91,-14.02 5.12,-14.01 5.32,-13.96 5.51,-13.90 5.69,-13.80 5.87,-13.69 6.02,-13.55 6.16,-13.41 6.27,-13.23 6.38,-13.06 6.45,-12.86 6.51,-12.67 6.53,-12.46 6.54,-12.26 6.51,-12.06 6.48,-11.85 6.39,-11.66 6.31,-11.48 6.19,-11.31 6.07,-11.15 5.91,-11.02 5.75,-10.89 5.56,-10.80 5.37,-10.71 -0.67,-9.02 -6.72,-7.32 -11.33,-6.26 -15.94,-5.20 -18.82,-4.76 -21.70,-4.31 -21.98,-4.34 -22.27,-4.36 -22.45,-4.35 -22.63,-4.35 -22.81,-4.38 -22.99,-4.42 -23.16,-4.50 -23.32,-4.58 -23.46,-4.69 -23.60,-4.81 -23.71,-4.95 -23.82,-5.10 -23.89,-5.27 -23.96,-5.43 -23.99,-5.61 -24.02,-5.79 -24.01,-5.98 -23.99,-6.16 -23.93,-6.33 -23.88,-6.50 -23.78,-6.66 -23.68,-6.81 -23.55,-6.94 -23.42,-7.06 -23.26,-7.15 -23.10,-7.24 -22.93,-7.30 -22.75,-7.35 -21.41,-8.15 -20.06,-8.96 -15.19,-10.25 -10.31,-11.54 -7.70,-12.06 -5.09,-12.59 -4.58,-12.91 -4.08,-13.23 -3.89,-13.24 -3.70,-13.26 -3.51,-13.23 -3.32,-13.20 -3.14,-13.12 -2.96,-13.05 -2.81,-12.93 -2.66,-12.82 -2.53,-12.67 -2.41,-12.52 -2.33,-12.35 -2.25,-12.17 -2.21,-11.98 -2.17,-11.79 -2.17,-11.60 -2.18,-11.41 -2.24,-11.22 -2.29,-11.04 -2.39,-10.87 -2.48,-10.70 -2.61,-10.56 -2.75,-10.43 -2.91,-10.32 -3.07,-10.22 -3.26,-10.16 -3.44,-10.10 -9.65,-9.71 -15.86,-9.33 -26.99,-6.85 -38.11,-4.37 -44.91,-3.02 -51.71,-1.67 -55.19,-1.10 -58.66,-0.52 -59.54,-0.16 -60.41,0.20 -60.60,0.21 -60.80,0.22 -60.98,0.18 -61.17,0.14 -61.34,0.06 -61.52,-0.01 -61.67,-0.13 -61.82,-0.25 -61.93,-0.40 -62.05,-0.56 -62.12,-0.73 -62.20,-0.91 -62.23,-1.10 -62.26,-1.29 -62.25,-1.48 -62.23,-1.67 -62.17,-1.85 -62.11,-2.03 -62.01,-2.19 -61.91,-2.36 -61.77,-2.49 -61.63,-2.62 -61.47,-2.72 -61.30,-2.82 -61.12,-2.87 -60.93,-2.92 -58.31,-4.07 -55.68,-5.23 -49.21,-6.98 -42.74,-8.74 -36.58,-10.33 -30.42,-11.92 -27.26,-12.88 -24.10,-13.83 -23.35,-14.36 -22.60,-14.89 -22.42,-14.93 -22.23,-14.96 -22.04,-14.94 -21.85,-14.93 -21.67,-14.87 -21.49,-14.82 -21.33,-14.72 -21.17,-14.62 -21.04,-14.48 -20.90,-14.35 -20.81,-14.18 -20.71,-14.02 -20.66,-13.84 -20.60,-13.66 -20.59,-13.47 -20.58,-13.28 -20.62,-13.09 -20.65,-12.91 -20.73,-12.74 -20.81,-12.57 -20.93,-12.42 -21.05,-12.27 -21.20,-12.15 -21.35,-12.04 -21.52,-11.96 -21.69,-11.89 -24.29,-11.31 -26.89,-10.74 -32.35,-9.86 -37.81,-8.98 -40.68,-8.61 -43.55,-8.24 -43.71,-8.23 -43.86,-8.23 -44.02,-8.26 -44.18,-8.29 -44.32,-8.36 -44.46,-8.43 -44.58,-8.53 -44.71,-8.63 -44.80,-8.76 -44.90,-8.88 -44.96,-9.03 -45.02,-9.18 -45.05,-9.33 -45.07,-9.49 -45.06,-9.65 -45.05,-9.81 -45.00,-9.96 -44.94,-10.11 -44.86,-10.24 -44.77,-10.37 -44.66,-10.48 -44.55,-10.59 -44.41,-10.67 -44.27,-10.75 -44.12,-10.80 -43.97,-10.84 -42.67,-10.81 -41.37,-10.79 -30.98,-10.98 -20.58,-11.17 -5.49,-11.81 9.60,-12.46 22.36,-12.72 35.12,-12.99 39.68,-12.81 44.23,-12.63 44.40,-12.61 44.56,-12.59 44.72,-12.54 44.88,-12.48 45.02,-12.39 45.16,-12.30 45.27,-12.18 45.38,-12.05 45.47,-11.91 45.55,-11.76 45.59,-11.60 45.63,-11.44 45.64,-11.27 45.64,-11.10 45.61,-10.94 45.57,-10.78 45.49,-10.63 45.42,-10.48 45.31,-10.35 45.20,-10.22 45.07,-10.13 44.93,-10.03 44.78,-9.97 44.62,-9.90 44.46,-9.88 44.29,-9.86 39.94,-9.50 35.60,-9.14 17.89,-8.42 0.18,-7.71 -22.29,-7.40 -44.77,-7.10 -58.34,-6.97 -71.92,-6.85 -76.82,-7.08 -81.73,-7.32 -81.89,-7.34 -82.05,-7.35 -82.20,-7.41 -82.35,-7.47 -82.48,-7.56 -82.62,-7.65 -82.73,-7.77 -82.83,-7.88 -82.91,-8.03 -82.99,-8.17 -83.03,-8.32 -83.07,-8.48 -83.07,-8.64 -83.07,-8.80 -83.03,-8.96 -82.99,-9.11 -82.92,-9.26 -82.85,-9.40 -82.74,-9.52 -82.64,-9.64 -82.51,-9.73 -82.37,-9.83 -82.22,-9.89 -82.07,-9.94 -81.92,-9.97 -81.76,-9.99 -75.98,-11.78 -70.20,-13.58 -57.22,-15.52 -44.24,-17.46 -16.85,-18.86 10.53,-20.26 28.20,-20.85 45.86,-21.44 51.92,-21.69 57.99,-21.94 58.14,-21.93 58.30,-21.91 58.45,-21.86 58.60,-21.81 58.74,-21.72 58.87,-21.64 58.98,-21.52 59.09,-21.41 59.17,-21.27 59.25,-21.13 59.29,-20.98 59.33,-20.83 59.34,-20.67 59.34,-20.51 59.31,-20.35 59.28,-20.20 59.21,-20.05 59.14,-19.91 59.04,-19.79 58.94,-19.67 58.81,-19.57 58.68,-19.48 58.54,-19.42 58.39,-19.35 58.23,-19.33 58.07,-19.30 46.57,-18.84 35.06,-18.37 6.60,-17.02 -21.85,-15.67 -42.86,-14.53 -63.86,-13.38 -73.95,-12.89 -84.03,-12.40 -87.17,-12.48 -90.30,-12.56 -90.46,-12.57 -90.61,-12.59 -90.77,-12.64 -90.92,-12.68 -91.05,-12.77 -91.19,-12.85 -91.30,-12.96 -91.41,-13.08 -91.49,-13.21 -91.57,-13.35 -91.61,-13.50 -91.66,-13.66 -91.67,-13.81 -91.67,-13.97 -91.64,-14.13 -91.61,-14.28 -91.55,-14.43 -91.48,-14.57 -91.38,-14.69 -91.28,-14.82 -91.15,-14.91 -91.03,-15.01 -90.88,-15.07 -90.74,-15.14 -90.58,-15.16 -90.43,-15.19 -85.02,-16.92 -79.62,-18.65 -54.15,-22.30 -28.68,-25.94 -4.06,-28.06 20.55,-30.18 37.05,-31.08 53.56,-31.98 59.99,-32.36 66.42,-32.74 66.58,-32.73 66.73,-32.72 66.88,-32.67 67.03,-32.63 67.17,-32.54 67.30,-32.46 67.42,-32.35 67.53,-32.23 67.61,-32.10 67.69,-31.96 67.74,-31.81 67.78,-31.66 67.79,-31.50 67.80,-31.34 67.77,-31.19 67.74,-31.03 67.67,-30.89 67.61,-30.74 67.51,-30.62 67.41,-30.50 67.29,-30.40 67.16,-30.30 67.02,-30.24 66.87,-30.17 66.72,-30.15 66.56,-30.12 59.28,-29.14 52.01,-28.15 39.94,-27.15 27.88,-26.16 8.97,-24.58 -9.93,-23.01 -27.75,-21.77 -45.57,-20.52 -55.74,-19.99 -65.91,-19.46 -68.79,-19.53 -71.67,-19.59 -71.83,-19.60 -71.99,-19.61 -72.14,-19.66 -72.29,-19.71 -72.42,-19.79 -72.56,-19.88 -72.67,-19.99 -72.78,-20.10 -72.86,-20.24 -72.94,-20.37 -72.99,-20.52 -73.03,-20.68 -73.04,-20.83 -73.05,-20.99 -73.02,-21.15 -72.99,-21.30 -72.92,-21.45 -72.86,-21.59 -72.76,-21.71 -72.66,-21.84 -72.53,-21.94 -72.41,-22.03 -72.26,-22.10 -72.12,-22.16 -71.96,-22.19 -71.81,-22.21 -63.41,-24.80 -55.02,-27.39 -36.61,-29.67 -18.20,-31.96 -2.08,-33.78 14.03,-35.60 30.12,-36.38 46.21,-37.16 52.45,-37.49 58.70,-37.82 58.86,-37.81 59.01,-37.80 59.17,-37.75 59.32,-37.70 59.45,-37.62 59.58,-37.53 59.70,-37.42 59.81,-37.31 59.89,-37.17 59.97,-37.03 60.01,-36.88 60.06,-36.73 60.06,-36.57 60.07,-36.41 60.04,-36.26 60.01,-36.10 59.94,-35.96 59.88,-35.81 59.78,-35.69 59.68,-35.57 59.55,-35.47 59.43,-35.38 59.28,-35.31 59.14,-35.25 58.98,-35.22 58.83,-35.20 56.51,-34.23 54.20,-33.27 37.45,-31.07 20.70,-28.88 -5.35,-26.81 -31.41,-24.74 -60.62,-23.86 -89.83,-22.98 -102.35,-23.22 -114.88,-23.46 -116.89,-25.23 -118.90,-27.00 -119.06,-27.03 -119.22,-27.05 -119.36,-27.11 -119.51,-27.17 -119.64,-27.26 -119.77,-27.35 -119.87,-27.47 -119.97,-27.59 -120.04,-27.73 -120.12,-27.87 -120.15,-28.03 -120.19,-28.18 -120.18,-28.34 -120.18,-28.50 -120.14,-28.65 -120.10,-28.80 -120.02,-28.94 -119.95,-29.08 -119.84,-29.20 -119.73,-29.32 -119.60,-29.40 -119.47,-29.49 -119.32,-29.54 -119.17,-29.60 -119.02,-29.61 -118.86,-29.63 -100.41,-35.26 -81.95,-40.89 -52.69,-46.76 -23.42,-52.63 4.53,-56.85 32.50,-61.07 49.87,-62.86 67.23,-64.65 70.58,-64.84 73.92,-65.03 74.08,-65.02 74.24,-65.02 74.39,-64.98 74.54,-64.94 74.68,-64.86 74.82,-64.79 74.94,-64.68 75.05,-64.57 75.14,-64.44 75.23,-64.31 75.28,-64.16 75.33,-64.01 75.35,-63.85 75.37,-63.70 75.35,-63.54 75.32,-63.38 75.26,-63.24 75.21,-63.09 75.11,-62.96 75.02,-62.83 74.90,-62.73 74.78,-62.63 74.64,-62.55 74.50,-62.48 74.34,-62.45 74.19,-62.41 59.56,-59.63 44.94,-56.84 15.69,-51.62 -13.54,-46.41 -37.17,-41.61 -60.79,-36.81 -77.72,-33.04 -94.66,-29.28 -100.42,-27.68 -106.19,-26.08 -106.35,-26.06 -106.50,-26.05 -106.66,-26.07 -106.82,-26.09 -106.96,-26.15 -107.11,-26.21 -107.24,-26.31 -107.37,-26.40 -107.47,-26.52 -107.57,-26.64 -107.64,-26.78 -107.71,-26.92 -107.75,-27.08 -107.78,-27.23 -107.78,-27.39 -107.77,-27.55 -107.73,-27.70 -107.69,-27.86 -107.61,-27.99 -107.54,-28.13 -107.43,-28.25 -107.32,-28.36 -107.19,-28.45 -107.06,-28.54 -106.91,-28.59 -106.76,-28.64 -99.16,-30.55 -91.57,-32.45 -72.20,-36.43 -52.84,-40.41 -18.70,-44.98 15.42,-49.55 32.80,-51.49 50.18,-53.43 56.41,-54.26 62.64,-55.08 62.80,-55.08 62.96,-55.08 63.11,-55.04 63.26,-55.00 63.40,-54.93 63.54,-54.85 63.66,-54.74 63.78,-54.64 63.87,-54.51 63.95,-54.38 64.01,-54.23 64.06,-54.08 64.08,-53.92 64.10,-53.76 64.08,-53.61 64.06,-53.45 64.00,-53.30 63.94,-53.15 63.85,-53.03 63.76,-52.90 63.64,-52.79 63.52,-52.69 63.38,-52.62 63.24,-52.54 63.09,-52.51 62.93,-52.47 57.32,-51.11 51.71,-49.75 34.88,-46.86 18.04,-43.96 -7.49,-39.86 -33.04,-35.76 -56.29,-33.44 -79.55,-31.11 -88.84,-30.42 -98.13,-29.72 -98.29,-29.72 -98.45,-29.73 -98.60,-29.77 -98.75,-29.81 -98.89,-29.88 -99.03,-29.96 -99.14,-30.07 -99.26,-30.18 -99.35,-30.31 -99.44,-30.44 -99.49,-30.59 -99.54,-30.74 -99.56,-30.90 -99.57,-31.05 -99.55,-31.21 -99.53,-31.37 -99.47,-31.51 -99.41,-31.66 -99.32,-31.79 -99.22,-31.92 -99.10,-32.02 -98.98,-32.12 -98.84,-32.19 -98.70,-32.26 -98.54,-32.30 -98.39,-32.33 -98.43,-33.82 -98.48,-35.30 -81.97,-40.89 -65.47,-46.47 -34.34,-53.34 -3.21,-60.21 19.49,-64.55 42.20,-68.90 53.30,-70.75 64.39,-72.60 67.67,-73.38 70.94,-74.16 71.10,-74.16 71.26,-74.17 71.42,-74.14 71.58,-74.11 71.73,-74.04 71.87,-73.97 72.00,-73.87 72.12,-73.77 72.22,-73.64 72.32,-73.51 72.38,-73.36 72.45,-73.21 72.47,-73.05 72.50,-72.89 72.49,-72.73 72.48,-72.57 72.43,-72.42 72.38,-72.26 72.29,-72.12 72.20,-71.99 72.09,-71.87 71.97,-71.76 71.83,-71.68 71.69,-71.60 71.54,-71.55 71.38,-71.51 58.39,-69.54 45.39,-67.57 27.81,-64.44 10.24,-61.32 -21.95,-55.39 -54.15,-49.46 -71.85,-45.79 -89.54,-42.12 -95.06,-40.85 -100.57,-39.58 -100.73,-39.57 -100.89,-39.56 -101.05,-39.58 -101.21,-39.61 -101.35,-39.67 -101.50,-39.73 -101.63,-39.83 -101.76,-39.92 -101.86,-40.04 -101.96,-40.17 -102.03,-40.31 -102.10,-40.45 -102.13,-40.61 -102.16,-40.77 -102.15,-40.93 -102.15,-41.08 -102.10,-41.24 -102.06,-41.39 -101.98,-41.53 -101.90,-41.67 -101.79,-41.78 -101.68,-41.90 -101.55,-41.98 -101.41,-42.07 -101.26,-42.12 -101.11,-42.17 -94.65,-44.76 -88.19,-47.35 -58.58,-54.81 -28.97,-62.28 1.72,-68.32 32.41,-74.36 54.68,-77.51 76.95,-80.66 85.25,-81.99 93.54,-83.32 93.70,-83.33 93.86,-83.33 94.02,-83.30 94.17,-83.26 94.31,-83.19 94.45,-83.12 94.57,-83.02 94.70,-82.91 94.79,-82.78 94.88,-82.66 94.94,-82.51 95.00,-82.36 95.02,-82.20 95.04,-82.05 95.03,-81.89 95.01,-81.73 94.96,-81.58 94.90,-81.43 94.82,-81.30 94.73,-81.17 94.61,-81.06 94.50,-80.95 94.36,-80.88 94.22,-80.80 94.06,-80.76 93.91,-80.72 80.19,-78.70 66.47,-76.68 31.88,-72.37 -2.71,-68.06 -49.62,-62.78 -96.52,-57.50 -129.40,-54.10 -162.27,-50.71 -176.53,-49.55 -190.78,-48.40 -190.94,-48.40 -191.10,-48.40 -191.25,-48.44 -191.41,-48.48 -191.55,-48.56 -191.69,-48.63 -191.80,-48.74 -191.92,-48.85 -192.01,-48.98 -192.09,-49.11 -192.15,-49.26 -192.20,-49.41 -192.22,-49.57 -192.23,-49.73 -192.21,-49.88 -192.19,-50.04 -192.13,-50.19 -192.07,-50.33 -191.98,-50.46 -191.89,-50.59 -191.77,-50.69 -191.65,-50.80 -191.51,-50.87 -191.36,-50.94 -191.21,-50.97 -191.05,-51.01 -191.09,-52.87 -191.13,-54.72 -160.36,-63.88 -129.58,-73.04 -85.49,-83.18 -41.41,-93.31 14.15,-102.22 69.71,-111.13 99.08,-114.92 128.44,-118.71 137.75,-120.31 147.06,-121.92 147.22,-121.92 147.38,-121.92 147.54,-121.89 147.69,-121.85 147.83,-121.78 147.97,-121.71 148.09,-121.60 148.21,-121.50 148.30,-121.37 148.39,-121.24 148.45,-121.09 148.51,-120.94 148.53,-120.78 148.55,-120.63 148.53,-120.47 148.51,-120.31 148.46,-120.16 148.40,-120.02 148.31,-119.88 148.22,-119.75 148.11,-119.65 147.99,-119.54 147.85,-119.47 147.71,-119.39 147.55,-119.35 147.40,-119.31 130.65,-117.41 113.89,-115.50 69.43,-108.95 24.96,-102.39 -17.52,-96.15 -60.00,-89.92 -109.97,-82.66 -159.94,-75.41 -179.45,-72.33 -198.96,-69.25 -199.12,-69.25 -199.28,-69.24 -199.43,-69.28 -199.59,-69.31 -199.73,-69.38 -199.87,-69.45 -199.99,-69.55 -200.11,-69.66 -200.21,-69.78 -200.30,-69.91 -200.36,-70.06 -200.42,-70.21 -200.44,-70.36 -200.47,-70.52 -200.45,-70.68 -200.43,-70.84 -200.38,-70.98 -200.33,-71.13 -200.24,-71.27 -200.16,-71.40 -200.04,-71.51 -199.92,-71.61 -199.78,-71.69 -199.65,-71.77 -199.49,-71.81 -199.34,-71.85 -197.61,-73.55 -195.87,-75.26 -176.37,-81.35 -156.88,-87.44 -108.95,-97.46 -61.02,-107.48 -21.40,-114.62 18.21,-121.75 49.46,-125.36 80.71,-128.97 92.82,-130.50 104.94,-132.03 105.10,-132.03 105.25,-132.03 105.41,-131.99 105.56,-131.96 105.70,-131.88 105.84,-131.81 105.96,-131.70 106.08,-131.60 106.17,-131.46 106.26,-131.33 106.31,-131.19 106.37,-131.04 106.38,-130.88 106.40,-130.72 106.38,-130.57 106.36,-130.41 106.30,-130.26 106.25,-130.11 106.16,-129.98 106.07,-129.85 105.95,-129.75 105.83,-129.64 105.69,-129.57 105.55,-129.50 105.39,-129.46 105.24,-129.43 101.66,-127.83 98.08,-126.23 85.14,-123.47 72.21,-120.72 20.19,-109.79 -31.83,-98.86 -80.40,-90.19 -128.98,-81.52 -160.55,-76.11 -192.12,-70.70 -205.24,-68.40 -218.37,-66.10 -218.53,-66.09 -218.68,-66.08 -218.84,-66.11 -219.00,-66.14 -219.14,-66.21 -219.28,-66.28 -219.41,-66.38 -219.53,-66.48 -219.63,-66.60 -219.72,-66.73 -219.79,-66.87 -219.85,-67.02 -219.88,-67.17 -219.90,-67.33 -219.89,-67.49 -219.88,-67.65 -219.83,-67.80 -219.78,-67.95 -219.70,-68.08 -219.61,-68.22 -219.50,-68.33 -219.39,-68.44 -219.25,-68.52 -219.12,-68.60 -218.96,-68.64 -218.81,-68.69 -204.65,-73.44 -190.49,-78.19 -164.81,-83.68 -139.13,-89.18 -100.03,-94.97 -60.93,-100.75 -17.84,-104.94 25.23,-109.12 67.71,-110.90 110.19,-112.68 127.66,-113.15 145.12,-113.62 145.28,-113.60 145.44,-113.59 145.59,-113.54 145.74,-113.49 145.87,-113.41 146.01,-113.32 146.12,-113.21 146.23,-113.09 146.31,-112.96 146.39,-112.82 146.43,-112.67 146.47,-112.52 146.48,-112.36 146.49,-112.20 146.46,-112.04 146.42,-111.89 146.36,-111.75 146.29,-111.60 146.19,-111.48 146.09,-111.36 145.96,-111.26 145.84,-111.17 145.69,-111.11 145.54,-111.04 145.39,-111.02 145.23,-110.99 142.22,-109.79 139.21,-108.60 112.38,-105.73 85.55,-102.87 35.10,-98.79 -15.34,-94.71 -56.61,-91.25 -97.88,-87.80 -122.33,-86.33 -146.79,-84.86 -156.02,-84.52 -165.26,-84.18 -165.42,-84.19 -165.58,-84.20 -165.73,-84.25 -165.88,-84.30 -166.01,-84.38 -166.15,-84.46 -166.26,-84.57 -166.37,-84.68 -166.46,-84.82 -166.54,-84.95 -166.58,-85.11 -166.63,-85.26 -166.64,-85.41 -166.65,-85.57 -166.62,-85.73 -166.59,-85.88 -166.53,-86.03 -166.46,-86.17 -166.37,-86.30 -166.27,-86.42 -166.14,-86.52 -166.02,-86.62 -165.87,-86.68 -165.73,-86.75 -165.57,-86.78 -165.42,-86.80 -147.66,-92.67 -129.90,-98.53 -94.63,-106.80 -59.36,-115.07 -23.08,-121.46 13.19,-127.85 47.61,-131.72 82.03,-135.59 94.05,-136.66 106.07,-137.72 106.23,-137.72 106.39,-137.72 106.54,-137.68 106.70,-137.64 106.84,-137.57 106.98,-137.49 107.09,-137.39 107.21,-137.28 107.30,-137.15 107.39,-137.02 107.44,-136.87 107.50,-136.72 107.52,-136.56 107.53,-136.41 107.51,-136.25 107.49,-136.09 107.44,-135.94 107.38,-135.80 107.29,-135.67 107.20,-135.54 107.08,-135.43 106.96,-135.33 106.82,-135.26 106.68,-135.19 106.52,-135.15 106.37,-135.11 101.40,-134.70 96.42,-134.29 55.24,-129.52 14.06,-124.75 -43.70,-118.69 -101.47,-112.64 -159.37,-106.62 -217.27,-100.59 -255.69,-97.46 -294.11,-94.32 -306.70,-93.56 -319.28,-92.81 -319.44,-92.81 -319.60,-92.82 -319.75,-92.86 -319.90,-92.91 -320.04,-92.98 -320.18,-93.06 -320.29,-93.17 -320.41,-93.28 -320.49,-93.42 -320.58,-93.55 -320.63,-93.70 -320.68,-93.85 -320.69,-94.01 -320.70,-94.17 -320.68,-94.32 -320.65,-94.48 -320.59,-94.62 -320.53,-94.77 -320.43,-94.90 -320.34,-95.02 -320.22,-95.12 -320.09,-95.22 -319.95,-95.29 -319.81,-95.36 -319.65,-95.39 -319.50,-95.42 -300.48,-99.12 -281.46,-102.81 -248.59,-107.26 -215.71,-111.72 -159.18,-117.06 -102.65,-122.41 -26.87,-127.55 48.91,-132.70 91.18,-134.89 133.45,-137.07 140.49,-137.43 147.53,-137.78 147.68,-137.77 147.84,-137.76 147.99,-137.71 148.14,-137.66 148.28,-137.58 148.41,-137.50 148.52,-137.39 148.63,-137.27 148.71,-137.14 148.80,-137.00 148.84,-136.85 148.89,-136.70 148.90,-136.54 148.90,-136.38 148.87,-136.23 148.84,-136.07 148.78,-135.93 148.71,-135.78 148.61,-135.66 148.51,-135.53 148.39,-135.44 148.26,-135.34 148.12,-135.28 147.97,-135.21 147.82,-135.19 147.66,-135.16 137.42,-134.73 127.18,-134.31 73.98,-130.11 20.78,-125.90 -20.81,-122.96 -62.41,-120.03 -130.11,-114.75 -197.81,-109.48 -230.17,-107.49 -262.54,-105.50 -262.45,-105.90 -262.37,-106.30 -262.56,-106.30 -262.75,-106.31 -262.93,-106.37 -263.11,-106.42 -263.27,-106.52 -263.43,-106.61 -263.57,-106.75 -263.70,-106.88 -263.80,-107.04 -263.90,-107.20 -263.96,-107.38 -264.01,-107.56 -264.03,-107.74 -264.04,-107.93 -264.01,-108.12 -263.98,-108.30 -263.90,-108.48 -263.82,-108.65 -263.71,-108.80 -263.60,-108.95 -263.45,-109.06 -263.30,-109.18 -263.13,-109.26 -262.96,-109.34 -262.77,-109.38 -262.59,-109.41 -251.30,-111.33 -240.01,-113.25 -185.13,-120.45 -130.25,-127.66 -79.33,-133.59 -28.41,-139.53 22.54,-145.50 73.51,-151.47 94.59,-154.01 115.67,-156.55 115.83,-156.55 115.99,-156.55 116.14,-156.51 116.30,-156.47 116.44,-156.39 116.58,-156.32 116.70,-156.22 116.81,-156.11 116.90,-155.98 116.99,-155.85 117.05,-155.70 117.10,-155.55 117.12,-155.39 117.14,-155.24 117.12,-155.08 117.10,-154.92 117.04,-154.78 116.99,-154.63 116.90,-154.50 116.81,-154.37 116.69,-154.26 116.57,-154.16 116.43,-154.09 116.29,-154.01 116.13,-153.98 115.98,-153.94 105.54,-155.02 95.09,-156.09 55.17,-153.68 15.25,-151.26 -42.58,-147.35 -100.41,-143.45 -157.76,-138.92 -215.10,-134.39 -247.52,-131.31 -279.94,-128.24 -288.54,-127.22 -297.15,-126.20 -297.31,-126.20 -297.47,-126.20 -297.62,-126.25 -297.77,-126.29 -297.91,-126.36 -298.05,-126.44 -298.16,-126.55 -298.28,-126.66 -298.36,-126.79 -298.45,-126.92 -298.50,-127.07 -298.56,-127.22 -298.57,-127.38 -298.59,-127.54 -298.56,-127.69 -298.54,-127.85 -298.48,-128.00 -298.42,-128.14 -298.33,-128.27 -298.23,-128.40 -298.11,-128.50 -297.99,-128.60 -297.85,-128.67 -297.71,-128.74 -297.55,-128.78 -297.40,-128.81 -272.91,-132.40 -248.43,-135.99 -210.97,-140.39 -173.50,-144.79 -100.06,-150.69 -26.63,-156.59 18.37,-159.67 63.38,-162.75 89.37,-164.62 115.36,-166.50 116.67,-167.42 117.98,-168.33 118.17,-168.32 118.35,-168.32 118.53,-168.26 118.70,-168.21 118.86,-168.12 119.02,-168.02 119.15,-167.89 119.28,-167.77 119.38,-167.61 119.48,-167.45 119.53,-167.28 119.59,-167.10 119.60,-166.92 119.62,-166.74 119.59,-166.56 119.56,-166.37 119.48,-166.21 119.41,-166.04 119.30,-165.89 119.19,-165.75 119.04,-165.63 118.90,-165.51 118.73,-165.44 118.57,-165.36 118.38,-165.32 118.20,-165.29 69.86,-162.29 21.52,-159.28 -8.20,-156.81 -37.92,-154.34 -100.01,-148.69 -162.09,-143.04 -195.96,-140.06 -229.82,-137.09 -238.46,-135.82 -247.11,-134.56 -247.26,-134.56 -247.42,-134.57 -247.57,-134.61 -247.73,-134.65 -247.86,-134.73 -248.00,-134.81 -248.12,-134.92 -248.23,-135.03 -248.32,-135.16 -248.40,-135.29 -248.45,-135.44 -248.51,-135.59 -248.52,-135.75 -248.53,-135.91 -248.51,-136.07 -248.48,-136.22 -248.42,-136.37 -248.36,-136.51 -248.27,-136.64 -248.17,-136.77 -248.05,-136.87 -247.93,-136.97 -247.79,-137.04 -247.64,-137.11 -247.49,-137.14 -247.34,-137.17 -233.78,-138.93 -220.23,-140.69 -155.80,-147.19 -91.36,-153.69 -22.00,-159.91 47.36,-166.12 99.27,-169.34 151.19,-172.55 172.39,-173.92 193.58,-175.29 193.74,-175.28 193.90,-175.27 194.05,-175.22 194.20,-175.17 194.34,-175.09 194.47,-175.01 194.58,-174.90 194.70,-174.79 194.78,-174.65 194.86,-174.52 194.91,-174.36 194.95,-174.21 194.96,-174.06 194.97,-173.90 194.95,-173.74 194.92,-173.59 194.85,-173.44 194.79,-173.30 194.69,-173.17 194.59,-173.05 194.47,-172.95 194.34,-172.85 194.20,-172.79 194.06,-172.72 193.90,-172.69 193.74,-172.66 161.05,-171.52 128.35,-170.37 77.67,-168.16 26.98,-165.95 -42.85,-162.71 -112.69,-159.47 -182.05,-156.37 -251.41,-153.27 -288.35,-151.38 -325.30,-149.48 -337.56,-148.68 -349.81,-147.87 -349.97,-147.88 -350.13,-147.89 -350.28,-147.94 -350.43,-147.99 -350.56,-148.08 -350.70,-148.16 -350.81,-148.27 -350.92,-148.38 -351.00,-148.52 -351.08,-148.66 -351.13,-148.81 -351.17,-148.96 -351.18,-149.12 -351.19,-149.28 -351.16,-149.43 -351.13,-149.59 -351.06,-149.73 -351.00,-149.87 -350.90,-150.00 -350.80,-150.12 -350.67,-150.22 -350.55,-150.31 -350.40,-150.38 -350.26,-150.44 -350.10,-150.47 -349.95,-150.50 -314.68,-155.90 -279.42,-161.30 -227.58,-167.62 -175.75,-173.95 -100.80,-180.09 -25.86,-186.23 22.65,-189.99 71.17,-193.75 105.04,-195.35 138.90,-196.95 144.37,-197.62 149.84,-198.30 150.00,-198.29 150.16,-198.28 150.31,-198.23 150.46,-198.18 150.60,-198.10 150.73,-198.01 150.84,-197.90 150.95,-197.79 151.03,-197.65 151.11,-197.51 151.16,-197.36 151.20,-197.21 151.21,-197.05 151.22,-196.89 151.19,-196.74 151.16,-196.58 151.09,-196.44 151.02,-196.30 150.92,-196.17 150.82,-196.05 150.70,-195.95 150.57,-195.86 150.43,-195.80 150.28,-195.73 150.12,-195.71 149.97,-195.68 98.79,-195.39 47.61,-195.11 0.01,-194.41 -47.59,-193.71 -121.87,-192.27 -196.16,-190.82 -255.89,-188.48 -315.62,-186.14 -343.30,-185.15 -370.98,-184.16 -372.70,-183.39 -374.42,-182.61 -374.59,-182.63 -374.76,-182.64 -374.93,-182.70 -375.09,-182.75 -375.24,-182.85 -375.38,-182.94 -375.50,-183.06 -375.62,-183.19 -375.71,-183.34 -375.79,-183.49 -375.84,-183.66 -375.89,-183.82 -375.89,-183.99 -375.90,-184.17 -375.86,-184.34 -375.83,-184.50 -375.75,-184.66 -375.68,-184.82 -375.57,-184.95 -375.46,-185.08 -375.32,-185.18 -375.18,-185.29 -375.02,-185.35 -374.86,-185.42 -374.69,-185.45 -374.52,-185.48 -314.88,-188.56 -255.24,-191.65 -178.72,-195.87 -102.19,-200.08 -15.61,-204.17 70.95,-208.26 133.06,-210.00 195.17,-211.74 227.02,-212.48 258.88,-213.22 264.08,-213.82 269.28,-214.42 269.44,-214.40 269.59,-214.39 269.74,-214.34 269.89,-214.28 270.02,-214.20 270.16,-214.11 270.26,-213.99 270.37,-213.88 270.45,-213.74 270.53,-213.60 270.57,-213.45 270.61,-213.29 270.61,-213.14 270.62,-212.98 270.58,-212.82 270.55,-212.67 270.48,-212.53 270.41,-212.38 270.30,-212.26 270.20,-212.14 270.07,-212.05 269.95,-211.96 269.80,-211.90 269.65,-211.84 269.50,-211.82 269.34,-211.79 218.63,-212.05 167.92,-212.30 86.01,-212.41 4.09,-212.52 -120.97,-209.69 -246.05,-206.86 -307.83,-205.09 -369.62,-203.31 -417.43,-200.83 -465.23,-198.35 -475.78,-197.87 -486.33,-197.39 -486.49,-197.40 -486.65,-197.41 -486.80,-197.46 -486.95,-197.51 -487.08,-197.59 -487.22,-197.68 -487.33,-197.79 -487.44,-197.90 -487.52,-198.04 -487.60,-198.17 -487.65,-198.33 -487.69,-198.48 -487.70,-198.64 -487.71,-198.79 -487.68,-198.95 -487.65,-199.10 -487.58,-199.25 -487.52,-199.39 -487.42,-199.52 -487.32,-199.64 -487.20,-199.74 -487.07,-199.83 -486.92,-199.90 -486.78,-199.96 -486.62,-199.99 -486.47,-200.01 -464.85,-203.25 -443.24,-206.49 -390.01,-212.48 -336.79,-218.46 -230.21,-227.33 -123.63,-236.20 -31.75,-241.69 60.12,-247.19 117.28,-250.10 174.44,-253.01 198.15,-254.24 221.87,-255.48 222.03,-255.47 222.19,-255.46 222.34,-255.41 222.49,-255.36 222.62,-255.28 222.76,-255.19 222.87,-255.08 222.98,-254.97 223.06,-254.83 223.14,-254.69 223.19,-254.54 223.23,-254.39 223.24,-254.23 223.25,-254.08 223.22,-253.92 223.19,-253.76 223.12,-253.62 223.05,-253.48 222.96,-253.35 222.86,-253.23 222.73,-253.13 222.61,-253.04 222.46,-252.97 222.32,-252.91 222.16,-252.88 222.00,-252.86 198.13,-252.81 174.25,-252.75 131.94,-251.01 89.63,-249.26 -20.36,-246.80 -130.37,-244.33 -205.87,-243.28 -281.37,-242.23 -355.99,-239.49 -430.62,-236.74 -462.34,-235.29 -494.06,-233.83 -494.21,-233.85 -494.37,-233.86 -494.52,-233.91 -494.67,-233.96 -494.80,-234.05 -494.94,-234.13 -495.05,-234.25 -495.16,-234.36 -495.24,-234.50 -495.31,-234.63 -495.36,-234.79 -495.40,-234.94 -495.41,-235.10 -495.41,-235.26 -495.38,-235.41 -495.35,-235.57 -495.28,-235.71 -495.21,-235.85 -495.11,-235.97 -495.01,-236.10 -494.88,-236.19 -494.76,-236.28 -494.61,-236.35 -494.46,-236.41 -494.31,-236.43 -494.15,-236.46 -486.67,-236.99 -479.18,-237.52 -442.09,-241.19 -404.99,-244.87 -298.93,-252.76 -192.86,-260.65 -116.16,-265.72 -39.46,-270.80 52.36,-275.26 144.20,-279.72 183.80,-281.61 223.39,-283.51 223.55,-283.49 223.71,-283.48 223.86,-283.43 224.01,-283.39 224.15,-283.30 224.28,-283.22 224.39,-283.11 224.50,-282.99 224.58,-282.86 224.66,-282.72 224.71,-282.57 224.75,-282.42 224.76,-282.26 224.77,-282.10 224.74,-281.94 224.71,-281.79 224.64,-281.65 224.57,-281.50 224.47,-281.38 224.38,-281.25 224.25,-281.16 224.12,-281.06 223.98,-281.00 223.83,-280.94 223.68,-280.91 223.52,-280.88 193.73,-281.69 163.93,-282.49 120.83,-282.83 77.72,-283.18 -31.44,-283.32 -140.61,-283.47 -251.97,-281.23 -363.33,-278.99 -448.02,-275.16 -532.71,-271.34 -570.15,-268.28 -607.59,-265.21 -607.75,-265.22 -607.91,-265.24 -608.06,-265.29 -608.21,-265.33 -608.34,-265.42 -608.48,-265.50 -608.59,-265.62 -608.70,-265.73 -608.78,-265.87 -608.86,-266.00 -608.90,-266.16 -608.95,-266.31 -608.95,-266.47 -608.96,-266.62 -608.93,-266.78 -608.90,-266.93 -608.83,-267.08 -608.76,-267.22 -608.66,-267.34 -608.56,-267.47 -608.44,-267.56 -608.31,-267.66 -608.17,-267.72 -608.02,-267.78 -607.87,-267.81 -607.71,-267.84 -586.98,-264.51 -566.24,-261.19 -498.93,-260.37 -431.62,-259.54 -347.79,-260.34 -263.96,-261.13 -161.62,-261.47 -59.28,-261.81 48.62,-259.08 156.54,-256.35 204.40,-254.61 252.27,-252.87 252.43,-252.85 252.58,-252.83 252.73,-252.77 252.87,-252.71 253.00,-252.61 253.13,-252.52 253.23,-252.40 253.33,-252.28 253.40,-252.14 253.47,-252.00 253.51,-251.84 253.54,-251.69 253.54,-251.53 253.53,-251.37 253.49,-251.22 253.45,-251.06 253.37,-250.93 253.30,-250.79 253.19,-250.67 253.08,-250.56 252.95,-250.47 252.82,-250.38 252.67,-250.33 252.52,-250.28 252.36,-250.26 252.20,-250.25 251.01,-249.49 249.81,-248.74 197.71,-248.38 145.60,-248.02 28.10,-251.35 -89.38,-254.69 -176.68,-257.26 -263.98,-259.83 -371.80,-262.08 -479.63,-264.33 -526.03,-265.86 -572.43,-267.39 -572.59,-267.41 -572.75,-267.44 -572.90,-267.50 -573.05,-267.56 -573.18,-267.65 -573.32,-267.75 -573.42,-267.87 -573.53,-268.00 -573.60,-268.14 -573.67,-268.29 -573.71,-268.45 -573.74,-268.60 -573.74,-268.77 -573.74,-268.93 -573.69,-269.09 -573.65,-269.24 -573.57,-269.39 -573.49,-269.53 -573.38,-269.65 -573.27,-269.77 -573.14,-269.86 -573.00,-269.95 -572.85,-270.00 -572.70,-270.05 -572.53,-270.07 -572.37,-270.09 -543.89,-273.61 -515.41,-277.12 -472.18,-280.35 -428.95,-283.57 -292.70,-289.53 -156.44,-295.50 -43.91,-299.19 68.61,-302.87 172.80,-304.44 276.98,-306.00 319.53,-306.95 362.08,-307.91 362.24,-307.89 362.39,-307.87 362.54,-307.82 362.69,-307.76 362.83,-307.68 362.96,-307.59 363.07,-307.47 363.17,-307.35 363.25,-307.21 363.32,-307.07 363.37,-306.92 363.41,-306.76 363.41,-306.61 363.41,-306.45 363.37,-306.29 363.34,-306.14 363.27,-305.99 363.20,-305.85 363.09,-305.73 362.99,-305.61 362.86,-305.52 362.73,-305.43 362.58,-305.37 362.43,-305.31 362.27,-305.29 362.12,-305.27 330.96,-308.55 299.80,-311.83 214.75,-316.10 129.70,-320.37 -48.47,-328.51 -226.65,-336.65 -336.87,-340.11 -447.09,-343.57 -535.33,-345.61 -623.57,-347.66 -653.89,-348.53 -684.21,-349.40 -684.36,-349.42 -684.52,-349.44 -684.67,-349.50 -684.82,-349.56 -684.94,-349.65 -685.07,-349.75 -685.17,-349.87 -685.28,-349.99 -685.35,-350.13 -685.42,-350.27 -685.45,-350.43 -685.49,-350.58 -685.48,-350.74 -685.48,-350.90 -685.44,-351.05 -685.40,-351.20 -685.32,-351.34 -685.24,-351.48 -685.13,-351.60 -685.03,-351.71 -684.89,-351.80 -684.76,-351.89 -684.61,-351.94 -684.46,-351.99 -684.30,-352.01 -684.15,-352.02 -661.42,-352.97 -638.70,-353.91 -583.04,-357.19 -527.37,-360.46 -405.38,-367.03 -283.39,-373.60 -208.55,-377.54 -133.70,-381.48 -58.19,-384.88 17.31,-388.28 73.12,-390.79 128.94,-393.31 129.15,-393.28 129.36,-393.26 129.55,-393.17 129.74,-393.08 129.90,-392.93 130.05,-392.78 130.15,-392.59 130.24,-392.40 130.28,-392.19 130.31,-391.98 130.27,-391.77 130.24,-391.56 130.13,-391.38 130.03,-391.19 129.88,-391.05 129.72,-390.90 129.53,-390.81 129.33,-390.73 129.12,-390.71 128.91,-390.68 128.70,-390.73 128.50,-390.78 128.32,-390.89 128.14,-391.00 128.00,-391.17 127.86,-391.33 127.79,-391.53 127.71,-391.72 127.70,-391.94 127.69,-392.15 127.75,-392.35 127.81,-392.56 127.93,-392.73 128.05,-392.91 128.22,-393.03 128.39,-393.16 128.59,-393.23 128.79,-393.29 129.01,-393.29 129.22,-393.29 129.42,-393.22 129.62,-393.15 129.79,-393.02 129.96,-392.89 130.07,-392.71 130.19,-392.54 130.25,-392.33 130.30,-392.12 130.29,-391.91 130.28,-391.70 130.19,-391.50 130.11,-391.31 129.98,-391.15 129.84,-390.99 129.65,-390.88 129.47,-390.77 129.26,-390.73 129.05,-390.68 129.05,-390.68 129.05,-390.68 73.24,-388.17 17.43,-385.66 -58.06,-382.26 -133.57,-378.86 -208.41,-374.92 -283.25,-370.97 -405.24,-364.41 -527.22,-357.84 -582.91,-354.56 -638.59,-351.29 -661.40,-350.34 -684.21,-349.40 -684.36,-349.42 -684.52,-349.44 -684.67,-349.50 -684.82,-349.56 -684.94,-349.65 -685.07,-349.75 -685.17,-349.87 -685.28,-349.99 -685.35,-350.13 -685.42,-350.27 -685.45,-350.43 -685.49,-350.58 -685.48,-350.74 -685.48,-350.90 -685.44,-351.05 -685.40,-351.20 -685.32,-351.34 -685.24,-351.48 -685.13,-351.60 -685.03,-351.71 -684.89,-351.80 -684.76,-351.89 -684.61,-351.94 -684.46,-351.99 -684.30,-352.01 -684.15,-352.02 -653.83,-351.16 -623.51,-350.29 -535.26,-348.24 -447.01,-346.20 -336.77,-342.74 -226.53,-339.28 -48.34,-331.14 129.84,-323.00 214.96,-318.73 300.08,-314.46 331.08,-311.18 362.08,-307.91 362.24,-307.89 362.39,-307.87 362.54,-307.82 362.69,-307.76 362.83,-307.68 362.96,-307.59 363.07,-307.47 363.17,-307.35 363.25,-307.21 363.32,-307.07 363.37,-306.92 363.41,-306.76 363.41,-306.61 363.41,-306.45 363.37,-306.29 363.34,-306.14 363.27,-305.99 363.20,-305.85 363.09,-305.73 362.99,-305.61 362.86,-305.52 362.73,-305.43 362.58,-305.37 362.43,-305.31 362.27,-305.29 362.12,-305.27 319.57,-304.31 277.02,-303.36 172.86,-301.79 68.70,-300.22 -43.81,-296.53 -156.33,-292.84 -292.54,-286.87 -428.75,-280.90 -471.91,-277.67 -515.08,-274.45 -543.75,-270.92 -572.43,-267.39 -572.59,-267.41 -572.75,-267.44 -572.90,-267.50 -573.05,-267.56 -573.18,-267.65 -573.32,-267.75 -573.42,-267.87 -573.53,-268.00 -573.60,-268.14 -573.67,-268.29 -573.71,-268.45 -573.74,-268.60 -573.74,-268.77 -573.74,-268.93 -573.69,-269.09 -573.65,-269.24 -573.57,-269.39 -573.49,-269.53 -573.38,-269.65 -573.27,-269.77 -573.14,-269.86 -573.00,-269.95 -572.85,-270.00 -572.70,-270.05 -572.53,-270.07 -572.37,-270.09 -525.97,-268.57 -479.57,-267.05 -371.74,-264.82 -263.90,-262.59 -176.60,-260.04 -89.30,-257.50 28.14,-254.20 145.58,-250.90 197.11,-251.17 248.63,-251.44 250.45,-252.15 252.27,-252.87 252.43,-252.85 252.58,-252.83 252.73,-252.77 252.87,-252.71 253.00,-252.61 253.13,-252.52 253.23,-252.40 253.33,-252.28 253.40,-252.14 253.47,-252.00 253.51,-251.84 253.54,-251.69 253.54,-251.53 253.53,-251.37 253.49,-251.22 253.45,-251.06 253.37,-250.93 253.30,-250.79 253.19,-250.67 253.08,-250.56 252.95,-250.47 252.82,-250.38 252.67,-250.33 252.52,-250.28 252.36,-250.26 252.20,-250.25 204.34,-251.98 156.47,-253.72 48.59,-256.45 -59.27,-259.18 -161.60,-258.84 -263.93,-258.51 -347.79,-257.71 -431.65,-256.91 -499.15,-257.76 -566.66,-258.60 -587.12,-261.90 -607.59,-265.21 -607.75,-265.22 -607.91,-265.24 -608.06,-265.29 -608.21,-265.33 -608.34,-265.42 -608.48,-265.50 -608.59,-265.62 -608.70,-265.73 -608.78,-265.87 -608.86,-266.00 -608.90,-266.15 -608.95,-266.31 -608.95,-266.46 -608.96,-266.62 -608.93,-266.78 -608.90,-266.93 -608.83,-267.08 -608.76,-267.22 -608.66,-267.34 -608.57,-267.47 -608.44,-267.56 -608.31,-267.66 -608.17,-267.72 -608.02,-267.78 -607.87,-267.81 -607.71,-267.84 -570.27,-270.90 -532.83,-273.96 -448.11,-277.79 -363.38,-281.62 -251.99,-283.86 -140.60,-286.09 -31.43,-285.95 77.74,-285.80 120.87,-285.46 164.00,-285.12 193.70,-284.31 223.39,-283.51 223.55,-283.49 223.71,-283.48 223.86,-283.43 224.01,-283.39 224.15,-283.30 224.28,-283.22 224.39,-283.11 224.50,-282.99 224.58,-282.86 224.66,-282.72 224.71,-282.57 224.75,-282.42 224.76,-282.26 224.77,-282.10 224.74,-281.94 224.71,-281.79 224.64,-281.65 224.57,-281.50 224.47,-281.38 224.38,-281.25 224.25,-281.16 224.12,-281.06 223.98,-281.00 223.83,-280.94 223.68,-280.91 223.52,-280.88 183.92,-278.99 144.32,-277.09 52.51,-272.64 -39.28,-268.18 -115.98,-263.10 -192.67,-258.03 -298.70,-250.14 -404.73,-242.25 -441.87,-238.58 -479.00,-234.90 -486.53,-234.37 -494.06,-233.83 -494.21,-233.85 -494.37,-233.86 -494.52,-233.91 -494.67,-233.96 -494.80,-234.05 -494.94,-234.13 -495.05,-234.25 -495.16,-234.36 -495.24,-234.50 -495.31,-234.63 -495.36,-234.79 -495.40,-234.94 -495.41,-235.10 -495.41,-235.26 -495.38,-235.41 -495.35,-235.57 -495.28,-235.71 -495.21,-235.85 -495.11,-235.97 -495.01,-236.10 -494.88,-236.19 -494.76,-236.28 -494.61,-236.35 -494.47,-236.41 -494.31,-236.43 -494.15,-236.46 -462.43,-237.91 -430.71,-239.37 -356.06,-242.11 -281.41,-244.86 -205.92,-245.91 -130.43,-246.95 -20.45,-249.42 89.52,-251.89 131.88,-253.63 174.24,-255.38 198.06,-255.43 221.87,-255.48 222.03,-255.47 222.19,-255.46 222.34,-255.41 222.49,-255.36 222.62,-255.28 222.76,-255.19 222.87,-255.08 222.98,-254.97 223.06,-254.83 223.14,-254.69 223.19,-254.54 223.23,-254.39 223.24,-254.23 223.25,-254.08 223.22,-253.92 223.19,-253.76 223.12,-253.62 223.05,-253.48 222.96,-253.35 222.86,-253.23 222.73,-253.13 222.61,-253.04 222.46,-252.97 222.32,-252.91 222.16,-252.88 222.00,-252.86 198.29,-251.62 174.57,-250.38 117.42,-247.47 60.28,-244.56 -31.56,-239.07 -123.41,-233.58 -229.95,-224.71 -336.49,-215.85 -389.67,-209.87 -442.85,-203.90 -464.59,-200.64 -486.33,-197.39 -486.49,-197.40 -486.65,-197.41 -486.80,-197.46 -486.95,-197.51 -487.08,-197.59 -487.22,-197.68 -487.33,-197.79 -487.44,-197.90 -487.52,-198.04 -487.60,-198.17 -487.65,-198.33 -487.69,-198.48 -487.70,-198.64 -487.71,-198.79 -487.68,-198.95 -487.65,-199.10 -487.58,-199.25 -487.52,-199.39 -487.42,-199.52 -487.32,-199.64 -487.20,-199.74 -487.07,-199.83 -486.92,-199.90 -486.78,-199.96 -486.62,-199.99 -486.47,-200.01 -475.92,-200.49 -465.37,-200.97 -417.53,-203.45 -369.69,-205.94 -307.90,-207.71 -246.11,-209.49 -121.00,-212.32 4.09,-215.15 86.01,-215.04 167.93,-214.93 218.61,-214.67 269.28,-214.42 269.44,-214.40 269.59,-214.39 269.74,-214.34 269.89,-214.28 270.02,-214.20 270.16,-214.11 270.26,-213.99 270.37,-213.88 270.45,-213.74 270.53,-213.60 270.57,-213.45 270.61,-213.29 270.61,-213.14 270.62,-212.98 270.58,-212.82 270.55,-212.67 270.48,-212.53 270.41,-212.39 270.30,-212.26 270.20,-212.14 270.07,-212.05 269.95,-211.96 269.80,-211.90 269.65,-211.84 269.50,-211.82 269.34,-211.79 264.14,-211.19 258.94,-210.59 227.09,-209.85 195.24,-209.11 133.16,-207.37 71.08,-205.64 -15.48,-201.55 -102.05,-197.46 -178.58,-193.24 -255.10,-189.03 -314.76,-185.82 -374.42,-182.61 -374.59,-182.63 -374.76,-182.64 -374.93,-182.70 -375.09,-182.75 -375.24,-182.85 -375.38,-182.94 -375.50,-183.06 -375.62,-183.19 -375.71,-183.34 -375.79,-183.49 -375.84,-183.66 -375.89,-183.82 -375.89,-183.99 -375.90,-184.17 -375.86,-184.33 -375.83,-184.50 -375.75,-184.66 -375.68,-184.81 -375.57,-184.95 -375.46,-185.08 -375.32,-185.18 -375.18,-185.29 -375.02,-185.35 -374.86,-185.42 -374.69,-185.45 -374.52,-185.48 -372.83,-186.12 -371.13,-186.77 -343.43,-187.77 -315.73,-188.77 -255.97,-191.11 -196.21,-193.45 -121.92,-194.89 -47.63,-196.34 -0.01,-197.03 47.60,-197.73 98.72,-198.02 149.84,-198.30 150.00,-198.29 150.16,-198.28 150.31,-198.23 150.46,-198.18 150.60,-198.10 150.73,-198.01 150.84,-197.90 150.95,-197.79 151.03,-197.65 151.11,-197.51 151.16,-197.36 151.20,-197.21 151.21,-197.05 151.22,-196.89 151.19,-196.74 151.16,-196.58 151.09,-196.44 151.02,-196.30 150.92,-196.17 150.82,-196.05 150.70,-195.95 150.57,-195.86 150.43,-195.80 150.28,-195.73 150.12,-195.71 149.97,-195.68 144.50,-195.00 139.03,-194.32 105.20,-192.73 71.38,-191.13 22.86,-187.37 -25.64,-183.61 -100.54,-177.48 -175.43,-171.34 -227.23,-165.02 -279.02,-158.70 -314.42,-153.29 -349.81,-147.87 -349.97,-147.88 -350.13,-147.89 -350.28,-147.94 -350.43,-147.99 -350.56,-148.07 -350.70,-148.16 -350.81,-148.27 -350.92,-148.38 -351.00,-148.52 -351.08,-148.66 -351.13,-148.81 -351.17,-148.96 -351.18,-149.12 -351.19,-149.28 -351.16,-149.43 -351.13,-149.59 -351.06,-149.73 -351.00,-149.87 -350.90,-150.00 -350.80,-150.12 -350.67,-150.22 -350.55,-150.31 -350.40,-150.38 -350.26,-150.44 -350.10,-150.47 -349.95,-150.50 -337.69,-151.30 -325.44,-152.11 -288.48,-154.00 -251.52,-155.89 -182.17,-158.99 -112.81,-162.10 -42.97,-165.34 26.87,-168.58 77.56,-170.79 128.26,-173.00 160.92,-174.14 193.58,-175.29 193.74,-175.28 193.90,-175.27 194.05,-175.22 194.20,-175.17 194.34,-175.09 194.47,-175.01 194.58,-174.90 194.70,-174.79 194.78,-174.65 194.86,-174.52 194.91,-174.36 194.95,-174.21 194.96,-174.06 194.97,-173.90 194.95,-173.74 194.92,-173.59 194.85,-173.44 194.79,-173.30 194.69,-173.17 194.59,-173.05 194.47,-172.95 194.34,-172.85 194.20,-172.79 194.06,-172.72 193.90,-172.69 193.74,-172.66 172.55,-171.30 151.35,-169.93 99.47,-166.72 47.59,-163.50 -21.75,-157.29 -91.09,-151.08 -155.49,-144.58 -219.90,-138.09 -233.50,-136.32 -247.11,-134.56 -247.26,-134.56 -247.42,-134.57 -247.57,-134.61 -247.73,-134.65 -247.86,-134.73 -248.00,-134.81 -248.12,-134.92 -248.23,-135.03 -248.32,-135.16 -248.40,-135.29 -248.45,-135.44 -248.51,-135.59 -248.52,-135.75 -248.53,-135.91 -248.51,-136.06 -248.48,-136.22 -248.42,-136.37 -248.36,-136.51 -248.27,-136.64 -248.17,-136.77 -248.05,-136.87 -247.93,-136.97 -247.79,-137.04 -247.64,-137.11 -247.49,-137.14 -247.34,-137.17 -238.69,-138.44 -230.05,-139.70 -196.19,-142.68 -162.33,-145.66 -100.24,-151.31 -38.14,-156.96 -8.39,-159.43 21.35,-161.90 69.67,-165.12 117.98,-168.33 118.17,-168.32 118.35,-168.32 118.53,-168.26 118.70,-168.21 118.86,-168.12 119.02,-168.02 119.15,-167.89 119.28,-167.77 119.38,-167.61 119.48,-167.45 119.53,-167.28 119.59,-167.10 119.60,-166.92 119.62,-166.74 119.59,-166.56 119.56,-166.37 119.48,-166.21 119.41,-166.04 119.30,-165.89 119.19,-165.75 119.04,-165.63 118.90,-165.51 118.73,-165.44 118.57,-165.36 118.38,-165.32 118.20,-165.29 116.95,-164.61 115.69,-163.92 89.62,-162.03 63.56,-160.13 18.57,-157.05 -26.42,-153.97 -99.81,-148.08 -173.20,-142.18 -210.62,-137.79 -248.05,-133.39 -272.60,-129.79 -297.15,-126.20 -297.31,-126.20 -297.47,-126.20 -297.62,-126.25 -297.77,-126.29 -297.91,-126.36 -298.05,-126.44 -298.16,-126.55 -298.28,-126.66 -298.36,-126.79 -298.45,-126.92 -298.50,-127.07 -298.56,-127.22 -298.57,-127.38 -298.59,-127.54 -298.56,-127.69 -298.54,-127.85 -298.48,-128.00 -298.42,-128.14 -298.33,-128.27 -298.23,-128.40 -298.11,-128.50 -297.99,-128.60 -297.85,-128.67 -297.71,-128.74 -297.55,-128.78 -297.40,-128.81 -288.79,-129.83 -280.18,-130.85 -247.75,-133.93 -215.31,-137.01 -157.95,-141.54 -100.59,-146.07 -42.74,-149.98 15.09,-153.88 55.22,-156.29 95.36,-158.71 105.52,-157.63 115.67,-156.55 115.83,-156.55 115.99,-156.55 116.14,-156.51 116.30,-156.47 116.44,-156.39 116.58,-156.32 116.70,-156.22 116.81,-156.11 116.90,-155.98 116.99,-155.85 117.05,-155.70 117.10,-155.55 117.12,-155.39 117.14,-155.24 117.12,-155.08 117.10,-154.92 117.04,-154.78 116.99,-154.63 116.90,-154.50 116.81,-154.37 116.69,-154.26 116.57,-154.16 116.43,-154.09 116.29,-154.01 116.13,-153.98 115.98,-153.94 94.90,-151.40 73.81,-148.86 22.85,-142.89 -28.10,-136.92 -79.00,-130.99 -129.91,-125.05 -184.72,-117.86 -239.54,-110.67 -250.96,-108.48 -262.37,-106.30 -262.56,-106.30 -262.75,-106.31 -262.93,-106.37 -263.11,-106.42 -263.27,-106.52 -263.43,-106.61 -263.57,-106.75 -263.70,-106.88 -263.80,-107.04 -263.90,-107.20 -263.96,-107.38 -264.01,-107.56 -264.03,-107.74 -264.04,-107.93 -264.01,-108.12 -263.98,-108.30 -263.90,-108.48 -263.82,-108.65 -263.71,-108.80 -263.60,-108.95 -263.45,-109.06 -263.30,-109.18 -263.13,-109.26 -262.96,-109.34 -262.77,-109.38 -262.59,-109.41 -261.81,-108.26 -261.03,-107.11 -229.52,-109.61 -198.01,-112.10 -130.31,-117.37 -62.60,-122.65 -21.01,-125.58 20.57,-128.52 73.82,-132.73 127.07,-136.93 137.30,-137.36 147.53,-137.78 147.68,-137.77 147.84,-137.76 147.99,-137.71 148.14,-137.66 148.28,-137.58 148.41,-137.50 148.52,-137.39 148.63,-137.27 148.71,-137.14 148.80,-137.00 148.84,-136.85 148.89,-136.70 148.90,-136.54 148.90,-136.38 148.87,-136.23 148.84,-136.07 148.78,-135.93 148.71,-135.78 148.61,-135.66 148.51,-135.53 148.39,-135.44 148.26,-135.34 148.12,-135.28 147.97,-135.21 147.82,-135.19 147.66,-135.16 140.62,-134.81 133.59,-134.45 91.34,-132.27 49.08,-130.08 -26.65,-124.94 -102.40,-119.79 -158.88,-114.45 -215.36,-109.12 -248.16,-104.67 -280.96,-100.23 -300.12,-96.52 -319.28,-92.81 -319.44,-92.81 -319.60,-92.82 -319.75,-92.86 -319.90,-92.91 -320.04,-92.98 -320.18,-93.06 -320.29,-93.17 -320.41,-93.28 -320.49,-93.42 -320.58,-93.55 -320.63,-93.70 -320.68,-93.85 -320.69,-94.01 -320.70,-94.17 -320.68,-94.32 -320.65,-94.48 -320.59,-94.62 -320.53,-94.77 -320.43,-94.90 -320.34,-95.02 -320.22,-95.12 -320.09,-95.22 -319.95,-95.29 -319.81,-95.36 -319.65,-95.39 -319.50,-95.42 -306.91,-96.18 -294.33,-96.94 -255.93,-100.07 -217.54,-103.20 -159.64,-109.23 -101.74,-115.25 -43.99,-121.30 13.76,-127.36 54.98,-132.13 96.21,-136.91 101.14,-137.32 106.07,-137.72 106.23,-137.72 106.39,-137.72 106.54,-137.68 106.70,-137.64 106.84,-137.57 106.98,-137.49 107.09,-137.39 107.21,-137.28 107.30,-137.15 107.39,-137.02 107.44,-136.87 107.50,-136.72 107.52,-136.56 107.53,-136.41 107.51,-136.25 107.49,-136.09 107.44,-135.94 107.38,-135.80 107.29,-135.67 107.20,-135.54 107.08,-135.43 106.96,-135.33 106.82,-135.26 106.68,-135.19 106.52,-135.15 106.37,-135.11 94.35,-134.05 82.32,-132.98 47.98,-129.12 13.65,-125.27 -22.55,-118.89 -58.76,-112.51 -93.92,-104.27 -129.08,-96.03 -147.17,-90.11 -165.26,-84.18 -165.42,-84.19 -165.58,-84.20 -165.73,-84.25 -165.88,-84.30 -166.01,-84.38 -166.15,-84.46 -166.26,-84.57 -166.37,-84.68 -166.46,-84.82 -166.54,-84.95 -166.58,-85.11 -166.63,-85.26 -166.64,-85.41 -166.65,-85.57 -166.62,-85.73 -166.59,-85.88 -166.53,-86.03 -166.46,-86.17 -166.37,-86.30 -166.27,-86.42 -166.14,-86.52 -166.02,-86.62 -165.87,-86.68 -165.73,-86.75 -165.57,-86.78 -165.42,-86.80 -156.18,-87.14 -146.94,-87.48 -122.52,-88.95 -98.09,-90.41 -56.82,-93.87 -15.55,-97.33 34.86,-101.40 85.28,-105.48 111.78,-108.27 138.29,-111.05 141.70,-112.34 145.12,-113.62 145.28,-113.60 145.44,-113.59 145.59,-113.54 145.74,-113.49 145.87,-113.41 146.01,-113.32 146.12,-113.21 146.23,-113.09 146.31,-112.96 146.39,-112.82 146.43,-112.67 146.47,-112.52 146.48,-112.36 146.49,-112.20 146.46,-112.04 146.42,-111.89 146.36,-111.75 146.29,-111.60 146.19,-111.48 146.09,-111.36 145.96,-111.26 145.84,-111.17 145.69,-111.11 145.55,-111.04 145.39,-111.02 145.23,-110.99 127.77,-110.52 110.30,-110.06 67.89,-108.28 25.48,-106.51 -17.53,-102.33 -60.54,-98.15 -99.56,-92.38 -138.58,-86.61 -164.12,-81.15 -189.66,-75.69 -204.01,-70.90 -218.37,-66.10 -218.53,-66.09 -218.68,-66.08 -218.84,-66.11 -219.00,-66.14 -219.14,-66.21 -219.28,-66.28 -219.41,-66.38 -219.53,-66.48 -219.63,-66.60 -219.72,-66.73 -219.79,-66.87 -219.85,-67.02 -219.88,-67.17 -219.90,-67.33 -219.89,-67.49 -219.88,-67.65 -219.83,-67.80 -219.78,-67.95 -219.70,-68.08 -219.62,-68.22 -219.50,-68.33 -219.39,-68.44 -219.25,-68.52 -219.12,-68.60 -218.96,-68.64 -218.81,-68.69 -205.69,-70.99 -192.56,-73.29 -161.00,-78.69 -129.44,-84.10 -80.90,-92.77 -32.37,-101.43 19.64,-112.36 71.66,-123.29 84.35,-125.96 97.04,-128.64 100.99,-130.34 104.94,-132.03 105.10,-132.03 105.25,-132.03 105.41,-131.99 105.56,-131.96 105.70,-131.88 105.84,-131.81 105.96,-131.70 106.08,-131.60 106.17,-131.46 106.26,-131.33 106.31,-131.19 106.37,-131.04 106.38,-130.88 106.40,-130.72 106.38,-130.57 106.36,-130.41 106.30,-130.26 106.25,-130.11 106.16,-129.98 106.07,-129.85 105.95,-129.75 105.83,-129.65 105.69,-129.57 105.55,-129.50 105.39,-129.46 105.24,-129.43 93.13,-127.89 81.01,-126.36 49.85,-122.76 18.68,-119.16 -20.90,-112.04 -60.49,-104.91 -108.29,-94.92 -156.10,-84.93 -175.15,-79.09 -194.20,-73.25 -196.58,-71.25 -198.96,-69.25 -199.12,-69.25 -199.28,-69.24 -199.43,-69.28 -199.59,-69.31 -199.73,-69.38 -199.87,-69.45 -199.99,-69.55 -200.11,-69.66 -200.21,-69.78 -200.30,-69.91 -200.36,-70.06 -200.42,-70.21 -200.44,-70.36 -200.47,-70.52 -200.45,-70.68 -200.43,-70.84 -200.38,-70.98 -200.33,-71.13 -200.24,-71.27 -200.16,-71.40 -200.04,-71.51 -199.92,-71.61 -199.78,-71.69 -199.65,-71.77 -199.49,-71.81 -199.34,-71.85 -179.83,-74.93 -160.32,-78.01 -110.35,-85.27 -60.38,-92.52 -17.90,-98.75 24.57,-104.99 69.08,-111.55 113.60,-118.12 130.33,-120.02 147.06,-121.92 147.22,-121.92 147.38,-121.92 147.54,-121.89 147.69,-121.85 147.83,-121.78 147.97,-121.71 148.09,-121.60 148.21,-121.50 148.30,-121.37 148.39,-121.24 148.45,-121.09 148.51,-120.94 148.53,-120.78 148.55,-120.63 148.53,-120.47 148.51,-120.31 148.46,-120.16 148.40,-120.02 148.31,-119.88 148.22,-119.75 148.11,-119.65 147.99,-119.54 147.85,-119.47 147.71,-119.39 147.55,-119.35 147.40,-119.31 138.09,-117.71 128.78,-116.10 99.45,-112.32 70.13,-108.53 14.65,-99.64 -40.82,-90.74 -84.83,-80.63 -128.84,-70.51 -159.24,-61.79 -189.64,-53.07 -190.21,-50.73 -190.78,-48.40 -190.94,-48.40 -191.10,-48.40 -191.25,-48.44 -191.41,-48.48 -191.55,-48.56 -191.69,-48.63 -191.80,-48.74 -191.92,-48.85 -192.01,-48.98 -192.09,-49.11 -192.15,-49.26 -192.20,-49.41 -192.22,-49.57 -192.23,-49.73 -192.21,-49.88 -192.19,-50.04 -192.13,-50.19 -192.07,-50.33 -191.98,-50.46 -191.89,-50.59 -191.77,-50.69 -191.65,-50.80 -191.51,-50.87 -191.36,-50.94 -191.21,-50.97 -191.05,-51.01 -176.80,-52.16 -162.54,-53.32 -129.68,-56.71 -96.82,-60.11 -49.93,-65.39 -3.04,-70.67 31.52,-74.98 66.09,-79.28 79.82,-81.30 93.54,-83.32 93.70,-83.33 93.86,-83.33 94.02,-83.30 94.17,-83.26 94.31,-83.19 94.45,-83.12 94.57,-83.02 94.70,-82.91 94.79,-82.78 94.88,-82.66 94.94,-82.51 95.00,-82.36 95.02,-82.20 95.04,-82.05 95.03,-81.89 95.01,-81.73 94.96,-81.58 94.90,-81.43 94.82,-81.30 94.73,-81.17 94.61,-81.06 94.50,-80.95 94.36,-80.88 94.22,-80.80 94.07,-80.76 93.91,-80.72 85.61,-79.38 77.32,-78.05 55.12,-74.91 32.92,-71.78 2.29,-65.75 -28.32,-59.72 -57.77,-52.31 -87.22,-44.89 -93.90,-42.24 -100.57,-39.58 -100.73,-39.57 -100.89,-39.56 -101.05,-39.58 -101.21,-39.61 -101.35,-39.67 -101.50,-39.73 -101.63,-39.83 -101.76,-39.92 -101.86,-40.04 -101.96,-40.17 -102.03,-40.31 -102.10,-40.45 -102.13,-40.61 -102.16,-40.77 -102.15,-40.93 -102.15,-41.08 -102.10,-41.24 -102.06,-41.39 -101.98,-41.53 -101.90,-41.67 -101.79,-41.78 -101.68,-41.90 -101.55,-41.98 -101.41,-42.07 -101.26,-42.12 -101.11,-42.17 -95.60,-43.45 -90.08,-44.72 -72.36,-48.40 -54.63,-52.07 -22.43,-58.01 9.77,-63.94 27.38,-67.09 44.99,-70.23 57.96,-72.19 70.94,-74.16 71.10,-74.16 71.26,-74.17 71.42,-74.14 71.58,-74.11 71.73,-74.04 71.87,-73.97 72.00,-73.87 72.12,-73.77 72.22,-73.64 72.32,-73.51 72.38,-73.36 72.45,-73.21 72.47,-73.05 72.50,-72.89 72.49,-72.73 72.48,-72.57 72.43,-72.42 72.38,-72.26 72.29,-72.12 72.20,-71.99 72.09,-71.87 71.97,-71.76 71.83,-71.68 71.69,-71.60 71.54,-71.55 71.38,-71.51 68.11,-70.71 64.84,-69.92 53.78,-68.07 42.72,-66.21 20.05,-61.85 -2.61,-57.49 -33.59,-50.63 -64.58,-43.77 -80.58,-38.69 -96.59,-33.61 -97.36,-31.67 -98.13,-29.72 -98.29,-29.72 -98.45,-29.73 -98.60,-29.77 -98.75,-29.81 -98.89,-29.88 -99.03,-29.96 -99.14,-30.07 -99.26,-30.18 -99.35,-30.31 -99.44,-30.44 -99.49,-30.59 -99.54,-30.74 -99.56,-30.90 -99.57,-31.05 -99.55,-31.21 -99.53,-31.37 -99.47,-31.51 -99.41,-31.66 -99.32,-31.79 -99.22,-31.92 -99.10,-32.02 -98.98,-32.12 -98.84,-32.19 -98.70,-32.26 -98.54,-32.30 -98.39,-32.33 -89.10,-33.03 -79.81,-33.73 -56.63,-36.04 -33.45,-38.35 -7.92,-42.45 17.60,-46.55 34.35,-49.43 51.10,-52.30 56.87,-53.69 62.64,-55.08 62.80,-55.08 62.96,-55.08 63.11,-55.04 63.26,-55.00 63.40,-54.93 63.54,-54.85 63.66,-54.74 63.78,-54.64 63.87,-54.51 63.95,-54.38 64.01,-54.23 64.06,-54.08 64.08,-53.92 64.10,-53.76 64.08,-53.61 64.06,-53.45 64.00,-53.30 63.94,-53.16 63.85,-53.03 63.76,-52.90 63.64,-52.79 63.52,-52.69 63.38,-52.62 63.24,-52.54 63.09,-52.51 62.93,-52.47 56.70,-51.65 50.47,-50.82 33.12,-48.88 15.77,-46.95 -18.27,-42.39 -52.31,-37.84 -71.62,-33.87 -90.93,-29.90 -98.56,-27.99 -106.19,-26.08 -106.35,-26.06 -106.50,-26.05 -106.66,-26.07 -106.82,-26.09 -106.96,-26.15 -107.11,-26.21 -107.24,-26.31 -107.37,-26.40 -107.47,-26.52 -107.57,-26.64 -107.64,-26.78 -107.71,-26.92 -107.75,-27.08 -107.78,-27.23 -107.78,-27.39 -107.77,-27.55 -107.73,-27.70 -107.69,-27.85 -107.61,-27.99 -107.54,-28.13 -107.43,-28.25 -107.32,-28.36 -107.19,-28.45 -107.06,-28.54 -106.91,-28.59 -106.76,-28.64 -100.99,-30.24 -95.23,-31.84 -78.27,-35.61 -61.31,-39.38 -37.66,-44.19 -14.00,-48.99 15.22,-54.21 44.45,-59.42 59.18,-62.22 73.92,-65.03 74.08,-65.02 74.24,-65.02 74.39,-64.98 74.54,-64.94 74.68,-64.86 74.82,-64.79 74.94,-64.68 75.05,-64.57 75.14,-64.44 75.23,-64.31 75.28,-64.16 75.33,-64.01 75.35,-63.85 75.37,-63.70 75.35,-63.54 75.32,-63.38 75.26,-63.24 75.21,-63.09 75.11,-62.96 75.02,-62.83 74.90,-62.73 74.78,-62.63 74.64,-62.55 74.50,-62.48 74.34,-62.45 74.19,-62.41 70.85,-62.23 67.50,-62.04 50.20,-60.26 32.89,-58.47 4.99,-54.26 -22.91,-50.05 -52.05,-44.21 -81.19,-38.38 -100.05,-32.69 -118.90,-27.00 -119.06,-27.03 -119.21,-27.05 -119.36,-27.11 -119.51,-27.17 -119.64,-27.26 -119.77,-27.35 -119.87,-27.47 -119.97,-27.59 -120.04,-27.73 -120.12,-27.87 -120.15,-28.03 -120.19,-28.18 -120.18,-28.34 -120.18,-28.50 -120.14,-28.65 -120.10,-28.80 -120.02,-28.94 -119.95,-29.08 -119.84,-29.20 -119.73,-29.32 -119.60,-29.40 -119.47,-29.49 -119.32,-29.54 -119.17,-29.60 -119.02,-29.61 -118.86,-29.63 -116.66,-27.78 -114.45,-25.94 -102.18,-25.77 -89.91,-25.61 -60.76,-26.48 -31.62,-27.36 -5.63,-29.42 20.36,-31.48 36.80,-33.60 53.24,-35.71 55.97,-36.76 58.70,-37.82 58.86,-37.81 59.01,-37.80 59.17,-37.75 59.32,-37.70 59.45,-37.62 59.58,-37.53 59.70,-37.42 59.81,-37.31 59.89,-37.17 59.97,-37.03 60.01,-36.88 60.06,-36.73 60.06,-36.57 60.07,-36.41 60.04,-36.26 60.01,-36.10 59.94,-35.96 59.88,-35.82 59.78,-35.69 59.68,-35.57 59.55,-35.47 59.43,-35.38 59.28,-35.31 59.14,-35.25 58.98,-35.22 58.83,-35.20 52.58,-34.87 46.33,-34.54 30.33,-33.77 14.32,-32.99 -1.77,-31.17 -17.88,-29.35 -36.07,-27.11 -54.26,-24.87 -62.96,-22.23 -71.67,-19.59 -71.83,-19.60 -71.99,-19.61 -72.14,-19.66 -72.29,-19.71 -72.42,-19.79 -72.56,-19.87 -72.67,-19.99 -72.78,-20.10 -72.86,-20.24 -72.94,-20.37 -72.99,-20.52 -73.03,-20.68 -73.04,-20.83 -73.05,-20.99 -73.02,-21.15 -72.99,-21.30 -72.92,-21.45 -72.86,-21.59 -72.76,-21.71 -72.66,-21.84 -72.53,-21.94 -72.41,-22.03 -72.26,-22.10 -72.12,-22.16 -71.96,-22.19 -71.81,-22.21 -68.93,-22.15 -66.05,-22.09 -55.90,-22.62 -45.75,-23.14 -27.95,-24.39 -10.15,-25.63 8.75,-27.20 27.67,-28.77 39.66,-29.77 51.65,-30.76 59.04,-31.75 66.42,-32.74 66.57,-32.73 66.73,-32.72 66.88,-32.67 67.03,-32.63 67.17,-32.54 67.30,-32.46 67.42,-32.35 67.53,-32.23 67.61,-32.10 67.69,-31.96 67.74,-31.81 67.78,-31.66 67.79,-31.50 67.80,-31.34 67.77,-31.19 67.74,-31.03 67.67,-30.89 67.61,-30.74 67.51,-30.62 67.41,-30.50 67.29,-30.40 67.16,-30.30 67.02,-30.24 66.87,-30.17 66.72,-30.15 66.56,-30.12 60.13,-29.74 53.70,-29.35 37.23,-28.46 20.77,-27.56 -3.76,-25.45 -28.31,-23.34 -53.57,-19.74 -78.83,-16.14 -84.57,-14.35 -90.30,-12.56 -90.46,-12.57 -90.61,-12.59 -90.77,-12.64 -90.92,-12.68 -91.05,-12.77 -91.19,-12.85 -91.30,-12.96 -91.41,-13.08 -91.49,-13.21 -91.57,-13.35 -91.61,-13.50 -91.66,-13.66 -91.67,-13.81 -91.67,-13.97 -91.64,-14.13 -91.61,-14.28 -91.55,-14.43 -91.48,-14.57 -91.38,-14.69 -91.28,-14.82 -91.15,-14.91 -91.03,-15.01 -90.88,-15.07 -90.74,-15.14 -90.58,-15.16 -90.43,-15.19 -87.29,-15.11 -84.16,-15.03 -74.08,-15.52 -64.01,-16.01 -42.99,-17.16 -21.98,-18.30 6.49,-19.65 34.96,-21.00 46.47,-21.47 57.99,-21.94 58.14,-21.93 58.30,-21.91 58.45,-21.86 58.60,-21.81 58.74,-21.72 58.87,-21.64 58.98,-21.52 59.09,-21.41 59.17,-21.27 59.25,-21.13 59.29,-20.98 59.33,-20.83 59.34,-20.67 59.34,-20.51 59.31,-20.35 59.28,-20.20 59.21,-20.05 59.14,-19.91 59.04,-19.79 58.94,-19.67 58.81,-19.57 58.68,-19.48 58.54,-19.42 58.39,-19.35 58.23,-19.33 58.07,-19.30 52.01,-19.05 45.95,-18.80 28.31,-18.21 10.67,-17.61 -16.58,-16.22 -43.85,-14.84 -56.64,-12.93 -69.43,-11.02 -75.58,-9.17 -81.73,-7.32 -81.89,-7.34 -82.05,-7.35 -82.20,-7.41 -82.35,-7.47 -82.48,-7.56 -82.62,-7.65 -82.73,-7.77 -82.83,-7.88 -82.91,-8.03 -82.99,-8.17 -83.03,-8.32 -83.07,-8.48 -83.07,-8.64 -83.07,-8.80 -83.03,-8.96 -82.99,-9.11 -82.92,-9.26 -82.85,-9.40 -82.74,-9.52 -82.64,-9.64 -82.51,-9.73 -82.37,-9.83 -82.22,-9.89 -82.08,-9.94 -81.92,-9.97 -81.76,-9.99 -76.85,-9.76 -71.95,-9.53 -58.38,-9.67 -44.81,-9.80 -22.36,-10.12 0.07,-10.44 17.72,-11.17 35.37,-11.91 39.80,-12.27 44.23,-12.63 44.40,-12.61 44.56,-12.59 44.72,-12.54 44.88,-12.48 45.02,-12.39 45.16,-12.30 45.27,-12.18 45.38,-12.05 45.47,-11.91 45.55,-11.76 45.59,-11.60 45.63,-11.44 45.64,-11.27 45.64,-11.11 45.61,-10.94 45.57,-10.78 45.49,-10.63 45.42,-10.48 45.31,-10.35 45.20,-10.22 45.07,-10.13 44.93,-10.03 44.78,-9.97 44.62,-9.90 44.46,-9.88 44.29,-9.86 39.74,-10.01 35.18,-10.16 22.45,-9.86 9.72,-9.56 -5.39,-8.86 -20.52,-8.17 -32.03,-8.20 -43.55,-8.24 -43.71,-8.23 -43.86,-8.23 -44.02,-8.26 -44.18,-8.29 -44.32,-8.36 -44.46,-8.43 -44.58,-8.53 -44.71,-8.63 -44.80,-8.76 -44.90,-8.88 -44.96,-9.03 -45.02,-9.18 -45.05,-9.33 -45.07,-9.49 -45.06,-9.65 -45.05,-9.81 -45.00,-9.96 -44.94,-10.11 -44.86,-10.24 -44.77,-10.37 -44.66,-10.48 -44.55,-10.59 -44.41,-10.67 -44.27,-10.75 -44.12,-10.80 -43.97,-10.84 -41.10,-11.21 -38.23,-11.58 -32.91,-12.43 -27.58,-13.29 -25.09,-14.09 -22.60,-14.89 -22.42,-14.93 -22.23,-14.96 -22.04,-14.95 -21.85,-14.93 -21.67,-14.87 -21.49,-14.82 -21.33,-14.72 -21.17,-14.62 -21.04,-14.48 -20.90,-14.35 -20.81,-14.18 -20.71,-14.02 -20.66,-13.84 -20.60,-13.66 -20.59,-13.47 -20.58,-13.28 -20.62,-13.10 -20.65,-12.91 -20.73,-12.74 -20.81,-12.57 -20.93,-12.42 -21.05,-12.27 -21.20,-12.15 -21.35,-12.04 -21.52,-11.96 -21.69,-11.89 -22.51,-11.60 -23.32,-11.31 -26.54,-10.33 -29.76,-9.36 -35.90,-7.77 -42.05,-6.18 -48.29,-4.50 -54.54,-2.82 -57.47,-1.30 -60.41,0.20 -60.60,0.21 -60.80,0.22 -60.98,0.18 -61.17,0.14 -61.34,0.06 -61.52,-0.01 -61.67,-0.13 -61.82,-0.25 -61.93,-0.40 -62.05,-0.56 -62.12,-0.73 -62.20,-0.91 -62.23,-1.10 -62.26,-1.29 -62.25,-1.48 -62.23,-1.67 -62.17,-1.85 -62.11,-2.03 -62.01,-2.19 -61.91,-2.36 -61.77,-2.49 -61.63,-2.62 -61.47,-2.72 -61.30,-2.82 -61.12,-2.87 -60.93,-2.92 -60.02,-3.04 -59.10,-3.16 -55.67,-3.74 -52.23,-4.32 -45.47,-5.67 -38.71,-7.02 -27.39,-9.55 -16.08,-12.08 -10.08,-12.65 -4.08,-13.23 -3.89,-13.24 -3.70,-13.26 -3.51,-13.23 -3.32,-13.20 -3.14,-13.12 -2.96,-13.05 -2.81,-12.93 -2.66,-12.82 -2.53,-12.67 -2.41,-12.52 -2.33,-12.35 -2.25,-12.17 -2.21,-11.98 -2.17,-11.79 -2.17,-11.60 -2.18,-11.41 -2.24,-11.22 -2.29,-11.04 -2.38,-10.87 -2.48,-10.70 -2.61,-10.56 -2.75,-10.43 -2.91,-10.32 -3.07,-10.22 -3.26,-10.16 -3.44,-10.10 -3.97,-9.97 -4.51,-9.84 -7.04,-9.30 -9.57,-8.76 -14.09,-7.56 -18.62,-6.36 -20.44,-5.36 -22.27,-4.36 -22.45,-4.35 -22.63,-4.35 -22.81,-4.38 -22.99,-4.42 -23.16,-4.50 -23.32,-4.58 -23.46,-4.69 -23.60,-4.81 -23.71,-4.95 -23.82,-5.10 -23.89,-5.27 -23.96,-5.43 -23.99,-5.61 -24.02,-5.79 -24.01,-5.98 -23.99,-6.16 -23.93,-6.33 -23.88,-6.50 -23.78,-6.66 -23.68,-6.81 -23.55,-6.94 -23.42,-7.06 -23.26,-7.15 -23.10,-7.24 -22.93,-7.30 -22.75,-7.35 -22.38,-7.18 -22.02,-7.02 -19.29,-7.47 -16.57,-7.93 -12.06,-8.99 -7.55,-10.06 -1.62,-12.00 4.31,-13.95 4.51,-13.99 4.71,-14.03 4.91,-14.02 5.12,-14.01 5.32,-13.96 5.51,-13.90 5.69,-13.80 5.87,-13.69 6.02,-13.55 6.16,-13.41 6.27,-13.23 6.38,-13.06 6.45,-12.86 6.51,-12.67 6.53,-12.46 6.54,-12.26 6.51,-12.06 6.48,-11.85 6.39,-11.66 6.31,-11.48 6.19,-11.31 6.07,-11.15 5.91,-11.02 5.75,-10.89 5.56,-10.80 5.37,-10.72 4.56,-10.38 3.75,-10.04 0.46,-8.93 -2.82,-7.83 -8.87,-6.68 -14.93,-5.54 -21.34,-3.58 -27.75,-1.61 -27.97,-1.57 -28.19,-1.52 -28.41,-1.53 -28.63,-1.55 -28.84,-1.61 -29.05,-1.67 -29.24,-1.78 -29.43,-1.90 -29.59,-2.05 -29.75,-2.20 -29.87,-2.39 -29.98,-2.58 -30.05,-2.79 -30.12,-3.00 -30.14,-3.22 -30.15,-3.44 -30.12,-3.66 -30.08,-3.88 -29.99,-4.08 -29.90,-4.28 -29.77,-4.46 -29.63,-4.63 -29.46,-4.77 -29.29,-4.91 -29.09,-5.00 -28.89,-5.10 -28.41,-5.26 -27.93,-5.43 -26.27,-5.94 -24.60,-6.45 -23.11,-7.23 -21.62,-8.01 -21.46,-8.04 -21.30,-8.07 -21.14,-8.06 -20.98,-8.05 -20.82,-8.00 -20.67,-7.95 -20.53,-7.87 -20.39,-7.78 -20.28,-7.67 -20.16,-7.55 -20.08,-7.41 -19.99,-7.28 -19.94,-7.12 -19.90,-6.97 -19.89,-6.80 -19.88,-6.64 -19.91,-6.48 -19.93,-6.32 -20.00,-6.17 -20.07,-6.03 -20.17,-5.90 -20.27,-5.77 -20.40,-5.67 -20.52,-5.57 -20.67,-5.50 -20.82,-5.44 -23.00,-4.57 -25.18,-3.70 -31.54,-1.72 -37.91,0.26 -41.60,2.29 -45.29,4.32 -47.85,5.95 -50.41,7.59 -50.58,7.55 -50.76,7.52 -50.92,7.44 -51.08,7.37 -51.22,7.25 -51.36,7.14 -51.46,7.00 -51.57,6.86 -51.64,6.70 -51.71,6.53 -51.74,6.36 -51.77,6.18 -51.75,6.01 -51.74,5.83 -51.69,5.66 -51.63,5.49 -51.54,5.34 -51.44,5.19 -51.31,5.07 -51.19,4.94 -51.03,4.86 -50.88,4.77 -50.71,4.72 -50.54,4.67 -50.36,4.66 -50.18,4.65 -48.35,5.43 -46.51,6.21 -41.04,6.63 -35.56,7.04 -24.36,5.34 -13.17,3.64 -1.68,1.03 9.79,-1.57 16.51,-4.17 23.22,-6.77 24.69,-8.07 26.16,-9.37 26.38,-9.37 26.60,-9.37 26.81,-9.32 27.02,-9.27 27.21,-9.17 27.40,-9.07 27.56,-8.93 27.72,-8.78 27.85,-8.61 27.97,-8.43 28.05,-8.23 28.13,-8.03 28.15,-7.81 28.18,-7.60 28.15,-7.38 28.13,-7.17 28.05,-6.97 27.98,-6.76 27.86,-6.59 27.73,-6.41 27.57,-6.26 27.41,-6.12 27.22,-6.02 27.03,-5.92 26.82,-5.86 26.61,-5.81 25.47,-6.32 24.33,-6.83 21.22,-6.38 18.12,-5.94 14.01,-4.94 9.89,-3.94 5.61,-2.37 1.32,-0.81 -1.61,1.18 -4.55,3.17 -4.82,3.17 -5.10,3.18 -5.36,3.12 -5.63,3.06 -5.88,2.93 -6.12,2.81 -6.33,2.63 -6.54,2.45 -6.69,2.23 -6.85,2.00 -6.95,1.75 -7.05,1.49 -7.09,1.22 -7.13,0.95 -7.10,0.68 -7.07,0.41 -6.98,0.15 -6.88,-0.10 -6.73,-0.33 -6.58,-0.55 -6.38,-0.74 -6.17,-0.92 -5.93,-1.05 -5.69,-1.19 -5.43,-1.26 -5.16,-1.32 -4.22,-1.40 -3.28,-1.47 -1.84,-1.72 -0.39,-1.97 -0.15,-1.99 0.08,-2.01 0.32,-1.97 0.56,-1.93 0.79,-1.83 1.01,-1.74 1.20,-1.59 1.40,-1.44 1.55,-1.25 1.70,-1.07 1.81,-0.85 1.91,-0.63 1.96,-0.39 2.01,-0.15 1.99,0.08 1.98,0.33 1.92,0.56 1.85,0.79 1.72,1.00 1.60,1.21 1.43,1.39 1.26,1.56 1.06,1.69 0.85,1.82 0.62,1.90 0.39,1.97 0.39,1.97 L 0.39,1.97 Z"></path></g></svg>